<svg width="189" height="326" viewBox="0 0 189 326" fill="none" xmlns="http://www.w3.org/2000/svg">
<path d="M45 71H117" stroke="#EC4A8A" stroke-dasharray="2 2"/>
<path d="M56 92.7413C67.8421 95.7662 88.0175 98.2344 106 92.7413C97.1765 87.5303 66.9649 85.3981 56 92.7413Z" stroke="#EC4A8A" stroke-dasharray="2 2"/>
<path d="M58 133.741C68.6579 136.766 86.8158 139.234 103 133.741C95.0588 128.53 67.8684 126.398 58 133.741Z" stroke="#EC4A8A" stroke-dasharray="2 2"/>
<path d="M53 159.802C66.5 162.866 89.5 165.366 110 159.802C99.9412 154.524 65.5 152.365 53 159.802Z" stroke="#EC4A8A" stroke-dasharray="2 2"/>
<path d="M144.678 74.156C144.226 74.156 143.79 74.086 143.37 73.946C142.95 73.802 142.582 73.598 142.266 73.334C141.954 73.07 141.732 72.756 141.6 72.392L142.542 72.038C142.622 72.262 142.77 72.458 142.986 72.626C143.206 72.79 143.464 72.918 143.76 73.01C144.056 73.102 144.362 73.148 144.678 73.148C145.038 73.148 145.372 73.09 145.68 72.974C145.992 72.854 146.244 72.688 146.436 72.476C146.628 72.264 146.724 72.016 146.724 71.732C146.724 71.44 146.624 71.202 146.424 71.018C146.224 70.83 145.968 70.682 145.656 70.574C145.344 70.462 145.018 70.376 144.678 70.316C144.098 70.22 143.578 70.084 143.118 69.908C142.662 69.728 142.3 69.478 142.032 69.158C141.768 68.838 141.636 68.416 141.636 67.892C141.636 67.404 141.776 66.978 142.056 66.614C142.34 66.25 142.714 65.968 143.178 65.768C143.642 65.568 144.142 65.468 144.678 65.468C145.122 65.468 145.552 65.538 145.968 65.678C146.388 65.814 146.758 66.014 147.078 66.278C147.398 66.542 147.628 66.864 147.768 67.244L146.814 67.592C146.734 67.364 146.584 67.168 146.364 67.004C146.148 66.836 145.892 66.708 145.596 66.62C145.304 66.528 144.998 66.482 144.678 66.482C144.322 66.478 143.99 66.536 143.682 66.656C143.374 66.776 143.124 66.942 142.932 67.154C142.74 67.366 142.644 67.612 142.644 67.892C142.644 68.228 142.732 68.486 142.908 68.666C143.088 68.842 143.332 68.974 143.64 69.062C143.948 69.15 144.294 69.228 144.678 69.296C145.222 69.388 145.726 69.534 146.19 69.734C146.654 69.93 147.026 70.192 147.306 70.52C147.59 70.848 147.732 71.252 147.732 71.732C147.732 72.22 147.59 72.646 147.306 73.01C147.026 73.374 146.654 73.656 146.19 73.856C145.726 74.056 145.222 74.156 144.678 74.156ZM154.465 70.268V74H153.457V70.49C153.457 70.186 153.383 69.91 153.235 69.662C153.087 69.414 152.889 69.218 152.641 69.074C152.393 68.926 152.117 68.852 151.813 68.852C151.513 68.852 151.237 68.926 150.985 69.074C150.737 69.218 150.539 69.414 150.391 69.662C150.243 69.91 150.169 70.186 150.169 70.49V74H149.161V65H150.169V68.75C150.381 68.47 150.649 68.248 150.973 68.084C151.297 67.916 151.649 67.832 152.029 67.832C152.477 67.832 152.885 67.942 153.253 68.162C153.625 68.378 153.919 68.67 154.135 69.038C154.355 69.406 154.465 69.816 154.465 70.268ZM158.188 74.156C157.636 74.156 157.132 74.014 156.676 73.73C156.224 73.446 155.862 73.066 155.59 72.59C155.322 72.11 155.188 71.58 155.188 71C155.188 70.56 155.266 70.15 155.422 69.77C155.578 69.386 155.792 69.05 156.064 68.762C156.34 68.47 156.66 68.242 157.024 68.078C157.388 67.914 157.776 67.832 158.188 67.832C158.74 67.832 159.242 67.974 159.694 68.258C160.15 68.542 160.512 68.924 160.78 69.404C161.052 69.884 161.188 70.416 161.188 71C161.188 71.436 161.11 71.844 160.954 72.224C160.798 72.604 160.582 72.94 160.306 73.232C160.034 73.52 159.716 73.746 159.352 73.91C158.992 74.074 158.604 74.156 158.188 74.156ZM158.188 73.148C158.564 73.148 158.902 73.05 159.202 72.854C159.506 72.654 159.744 72.392 159.916 72.068C160.092 71.74 160.18 71.384 160.18 71C160.18 70.608 160.09 70.248 159.91 69.92C159.734 69.592 159.496 69.33 159.196 69.134C158.896 68.938 158.56 68.84 158.188 68.84C157.812 68.84 157.474 68.94 157.174 69.14C156.874 69.336 156.636 69.598 156.46 69.926C156.284 70.254 156.196 70.612 156.196 71C156.196 71.4 156.286 71.764 156.466 72.092C156.646 72.416 156.888 72.674 157.192 72.866C157.496 73.054 157.828 73.148 158.188 73.148ZM161.859 71.72V68H162.867V71.498C162.867 71.802 162.941 72.078 163.089 72.326C163.237 72.574 163.435 72.772 163.683 72.92C163.935 73.064 164.211 73.136 164.511 73.136C164.815 73.136 165.089 73.064 165.333 72.92C165.581 72.772 165.779 72.574 165.927 72.326C166.075 72.078 166.149 71.802 166.149 71.498V68H167.157L167.163 74H166.155L166.149 73.238C165.937 73.518 165.669 73.742 165.345 73.91C165.021 74.074 164.671 74.156 164.295 74.156C163.847 74.156 163.437 74.048 163.065 73.832C162.697 73.612 162.403 73.318 162.183 72.95C161.967 72.582 161.859 72.172 161.859 71.72ZM168.439 74V65H169.447V74H168.439ZM175.659 65H176.667V74H175.659V72.98C175.455 73.332 175.181 73.616 174.837 73.832C174.493 74.048 174.089 74.156 173.625 74.156C173.189 74.156 172.781 74.074 172.401 73.91C172.021 73.746 171.685 73.52 171.393 73.232C171.105 72.94 170.879 72.604 170.715 72.224C170.551 71.844 170.469 71.436 170.469 71C170.469 70.564 170.551 70.156 170.715 69.776C170.879 69.392 171.105 69.056 171.393 68.768C171.685 68.476 172.021 68.248 172.401 68.084C172.781 67.92 173.189 67.838 173.625 67.838C174.089 67.838 174.493 67.946 174.837 68.162C175.181 68.378 175.455 68.662 175.659 69.014V65ZM173.637 73.178C174.033 73.178 174.375 73.082 174.663 72.89C174.955 72.694 175.179 72.43 175.335 72.098C175.495 71.766 175.575 71.4 175.575 71C175.575 70.592 175.495 70.224 175.335 69.896C175.175 69.564 174.949 69.302 174.657 69.11C174.369 68.914 174.029 68.816 173.637 68.816C173.241 68.816 172.881 68.914 172.557 69.11C172.237 69.306 171.981 69.57 171.789 69.902C171.597 70.23 171.501 70.596 171.501 71C171.501 71.404 171.599 71.772 171.795 72.104C171.991 72.432 172.251 72.694 172.575 72.89C172.899 73.082 173.253 73.178 173.637 73.178ZM180.688 74.156C180.136 74.156 179.632 74.014 179.176 73.73C178.724 73.446 178.362 73.066 178.09 72.59C177.822 72.11 177.688 71.58 177.688 71C177.688 70.56 177.766 70.15 177.922 69.77C178.078 69.386 178.292 69.05 178.564 68.762C178.84 68.47 179.16 68.242 179.524 68.078C179.888 67.914 180.276 67.832 180.688 67.832C181.14 67.832 181.554 67.924 181.93 68.108C182.31 68.288 182.634 68.54 182.902 68.864C183.174 69.188 183.376 69.564 183.508 69.992C183.644 70.42 183.694 70.878 183.658 71.366H178.762C178.81 71.706 178.922 72.01 179.098 72.278C179.274 72.542 179.498 72.752 179.77 72.908C180.046 73.064 180.352 73.144 180.688 73.148C181.048 73.148 181.374 73.056 181.666 72.872C181.958 72.684 182.194 72.428 182.374 72.104L183.4 72.344C183.16 72.876 182.798 73.312 182.314 73.652C181.83 73.988 181.288 74.156 180.688 74.156ZM178.732 70.574H182.644C182.612 70.238 182.504 69.932 182.32 69.656C182.136 69.376 181.902 69.152 181.618 68.984C181.334 68.816 181.024 68.732 180.688 68.732C180.352 68.732 180.044 68.814 179.764 68.978C179.484 69.142 179.252 69.364 179.068 69.644C178.888 69.92 178.776 70.23 178.732 70.574ZM184.669 74V68H185.677V68.75C185.889 68.47 186.157 68.248 186.481 68.084C186.805 67.916 187.157 67.832 187.537 67.832C187.769 67.832 187.993 67.862 188.209 67.922L187.801 68.93C187.637 68.878 187.477 68.852 187.321 68.852C187.021 68.852 186.745 68.926 186.493 69.074C186.245 69.218 186.047 69.414 185.899 69.662C185.751 69.91 185.677 70.186 185.677 70.49V74H184.669Z" fill="#AEA7C3"/>
<path d="M141.72 103V94.6H144.618C145.034 94.6 145.412 94.686 145.752 94.858C146.096 95.026 146.368 95.272 146.568 95.596C146.768 95.92 146.868 96.308 146.868 96.76C146.868 97.004 146.826 97.24 146.742 97.468C146.662 97.692 146.55 97.886 146.406 98.05C146.266 98.21 146.106 98.318 145.926 98.374C146.178 98.438 146.392 98.552 146.568 98.716C146.744 98.876 146.886 99.064 146.994 99.28C147.106 99.496 147.186 99.722 147.234 99.958C147.282 100.194 147.306 100.422 147.306 100.642C147.306 101.106 147.2 101.516 146.988 101.872C146.78 102.224 146.5 102.5 146.148 102.7C145.796 102.9 145.408 103 144.984 103H141.72ZM142.728 102.112H144.894C145.17 102.112 145.42 102.042 145.644 101.902C145.872 101.758 146.054 101.562 146.19 101.314C146.326 101.066 146.394 100.786 146.394 100.474C146.394 100.198 146.326 99.938 146.19 99.694C146.054 99.446 145.872 99.246 145.644 99.094C145.42 98.942 145.17 98.866 144.894 98.866H142.728V102.112ZM142.728 97.996H144.522C144.89 97.996 145.204 97.888 145.464 97.672C145.728 97.452 145.86 97.146 145.86 96.754C145.86 96.33 145.728 96.014 145.464 95.806C145.204 95.594 144.89 95.488 144.522 95.488H142.728V97.996ZM148.125 100.72V97H149.133V100.498C149.133 100.802 149.207 101.078 149.355 101.326C149.503 101.574 149.701 101.772 149.949 101.92C150.201 102.064 150.477 102.136 150.777 102.136C151.081 102.136 151.355 102.064 151.599 101.92C151.847 101.772 152.045 101.574 152.193 101.326C152.341 101.078 152.415 100.802 152.415 100.498V97H153.423L153.429 103H152.421L152.415 102.238C152.203 102.518 151.935 102.742 151.611 102.91C151.287 103.074 150.937 103.156 150.561 103.156C150.113 103.156 149.703 103.048 149.331 102.832C148.963 102.612 148.669 102.318 148.449 101.95C148.233 101.582 148.125 101.172 148.125 100.72ZM156.464 103.114C156.14 103.102 155.824 103.042 155.516 102.934C155.212 102.822 154.944 102.672 154.712 102.484C154.484 102.292 154.318 102.072 154.214 101.824L155.078 101.452C155.138 101.588 155.246 101.716 155.402 101.836C155.558 101.956 155.738 102.052 155.942 102.124C156.146 102.196 156.352 102.232 156.56 102.232C156.78 102.232 156.986 102.198 157.178 102.13C157.37 102.062 157.526 101.962 157.646 101.83C157.77 101.694 157.832 101.532 157.832 101.344C157.832 101.144 157.764 100.988 157.628 100.876C157.496 100.76 157.328 100.67 157.124 100.606C156.924 100.538 156.72 100.474 156.512 100.414C156.1 100.31 155.732 100.186 155.408 100.042C155.084 99.894 154.828 99.708 154.64 99.484C154.456 99.256 154.364 98.966 154.364 98.614C154.364 98.242 154.466 97.92 154.67 97.648C154.878 97.376 155.15 97.166 155.486 97.018C155.822 96.87 156.182 96.796 156.566 96.796C157.05 96.796 157.492 96.9 157.892 97.108C158.292 97.316 158.59 97.598 158.786 97.954L157.976 98.428C157.908 98.284 157.804 98.158 157.664 98.05C157.524 97.938 157.364 97.85 157.184 97.786C157.004 97.722 156.82 97.688 156.632 97.684C156.4 97.676 156.182 97.706 155.978 97.774C155.778 97.842 155.616 97.946 155.492 98.086C155.372 98.222 155.312 98.392 155.312 98.596C155.312 98.796 155.376 98.948 155.504 99.052C155.636 99.156 155.806 99.24 156.014 99.304C156.226 99.364 156.456 99.434 156.704 99.514C157.068 99.63 157.408 99.764 157.724 99.916C158.04 100.068 158.294 100.258 158.486 100.486C158.682 100.714 158.778 100.996 158.774 101.332C158.774 101.7 158.664 102.022 158.444 102.298C158.224 102.57 157.938 102.778 157.586 102.922C157.238 103.066 156.864 103.13 156.464 103.114ZM162.91 98.008H161.548L161.542 103H160.534L160.54 98.008H159.508V97H160.54L160.534 95.116H161.542L161.548 97H162.91V98.008Z" fill="#AEA7C3"/>
<path d="M143.484 134L141.336 125.6H142.374L144.066 132.23L145.752 125.6H146.658L148.35 132.23L150.036 125.6H151.074L148.938 134H147.762L146.208 127.916L144.654 134H143.484ZM156.259 128H157.267V134H156.259L156.217 132.986C156.029 133.334 155.769 133.616 155.437 133.832C155.109 134.048 154.717 134.156 154.261 134.156C153.821 134.156 153.409 134.074 153.025 133.91C152.641 133.742 152.301 133.512 152.005 133.22C151.713 132.924 151.485 132.584 151.321 132.2C151.157 131.816 151.075 131.402 151.075 130.958C151.075 130.53 151.155 130.126 151.315 129.746C151.475 129.366 151.697 129.034 151.981 128.75C152.269 128.462 152.601 128.238 152.977 128.078C153.353 127.914 153.757 127.832 154.189 127.832C154.661 127.832 155.075 127.944 155.431 128.168C155.787 128.388 156.075 128.674 156.295 129.026L156.259 128ZM154.243 133.178C154.639 133.178 154.981 133.082 155.269 132.89C155.561 132.694 155.785 132.43 155.941 132.098C156.101 131.766 156.181 131.4 156.181 131C156.181 130.592 156.101 130.224 155.941 129.896C155.781 129.564 155.555 129.302 155.263 129.11C154.975 128.914 154.635 128.816 154.243 128.816C153.847 128.816 153.487 128.914 153.163 129.11C152.839 129.306 152.581 129.57 152.389 129.902C152.201 130.23 152.107 130.596 152.107 131C152.107 131.404 152.205 131.772 152.401 132.104C152.597 132.432 152.857 132.694 153.181 132.89C153.505 133.082 153.859 133.178 154.243 133.178ZM158.466 128H159.474V134H158.466V128ZM158.982 127.022C158.822 127.022 158.688 126.97 158.58 126.866C158.472 126.762 158.418 126.632 158.418 126.476C158.418 126.32 158.472 126.19 158.58 126.086C158.688 125.982 158.82 125.93 158.976 125.93C159.132 125.93 159.264 125.982 159.372 126.086C159.48 126.19 159.534 126.32 159.534 126.476C159.534 126.632 159.48 126.762 159.372 126.866C159.268 126.97 159.138 127.022 158.982 127.022ZM162.687 134.114C162.363 134.102 162.047 134.042 161.739 133.934C161.435 133.822 161.167 133.672 160.935 133.484C160.707 133.292 160.541 133.072 160.437 132.824L161.301 132.452C161.361 132.588 161.469 132.716 161.625 132.836C161.781 132.956 161.961 133.052 162.165 133.124C162.369 133.196 162.575 133.232 162.783 133.232C163.003 133.232 163.209 133.198 163.401 133.13C163.593 133.062 163.749 132.962 163.869 132.83C163.993 132.694 164.055 132.532 164.055 132.344C164.055 132.144 163.987 131.988 163.851 131.876C163.719 131.76 163.551 131.67 163.347 131.606C163.147 131.538 162.943 131.474 162.735 131.414C162.323 131.31 161.955 131.186 161.631 131.042C161.307 130.894 161.051 130.708 160.863 130.484C160.679 130.256 160.587 129.966 160.587 129.614C160.587 129.242 160.689 128.92 160.893 128.648C161.101 128.376 161.373 128.166 161.709 128.018C162.045 127.87 162.405 127.796 162.789 127.796C163.273 127.796 163.715 127.9 164.115 128.108C164.515 128.316 164.813 128.598 165.009 128.954L164.199 129.428C164.131 129.284 164.027 129.158 163.887 129.05C163.747 128.938 163.587 128.85 163.407 128.786C163.227 128.722 163.043 128.688 162.855 128.684C162.623 128.676 162.405 128.706 162.201 128.774C162.001 128.842 161.839 128.946 161.715 129.086C161.595 129.222 161.535 129.392 161.535 129.596C161.535 129.796 161.599 129.948 161.727 130.052C161.859 130.156 162.029 130.24 162.237 130.304C162.449 130.364 162.679 130.434 162.927 130.514C163.291 130.63 163.631 130.764 163.947 130.916C164.263 131.068 164.517 131.258 164.709 131.486C164.905 131.714 165.001 131.996 164.997 132.332C164.997 132.7 164.887 133.022 164.667 133.298C164.447 133.57 164.161 133.778 163.809 133.922C163.461 134.066 163.087 134.13 162.687 134.114ZM169.133 129.008H167.771L167.765 134H166.757L166.763 129.008H165.731V128H166.763L166.757 126.116H167.765L167.771 128H169.133V129.008Z" fill="#AEA7C3"/>
<path d="M146.886 154.6H147.894V163H146.886V159.004H142.728V163H141.72V154.6H142.728V157.996H146.886V154.6ZM149.337 157H150.345V163H149.337V157ZM149.853 156.022C149.693 156.022 149.559 155.97 149.451 155.866C149.343 155.762 149.289 155.632 149.289 155.476C149.289 155.32 149.343 155.19 149.451 155.086C149.559 154.982 149.691 154.93 149.847 154.93C150.003 154.93 150.135 154.982 150.243 155.086C150.351 155.19 150.405 155.32 150.405 155.476C150.405 155.632 150.351 155.762 150.243 155.866C150.139 155.97 150.009 156.022 149.853 156.022ZM152.736 166H151.728V157H152.736V158.026C152.94 157.674 153.212 157.39 153.552 157.174C153.892 156.954 154.296 156.844 154.764 156.844C155.2 156.844 155.608 156.926 155.988 157.09C156.372 157.254 156.708 157.482 156.996 157.774C157.284 158.062 157.51 158.396 157.674 158.776C157.838 159.156 157.92 159.564 157.92 160C157.92 160.436 157.838 160.846 157.674 161.23C157.51 161.614 157.284 161.952 156.996 162.244C156.708 162.532 156.372 162.758 155.988 162.922C155.608 163.086 155.2 163.168 154.764 163.168C154.296 163.168 153.892 163.06 153.552 162.844C153.212 162.624 152.94 162.338 152.736 161.986V166ZM154.752 157.822C154.364 157.822 154.024 157.92 153.732 158.116C153.44 158.312 153.214 158.574 153.054 158.902C152.898 159.23 152.82 159.596 152.82 160C152.82 160.4 152.898 160.766 153.054 161.098C153.214 161.43 153.438 161.694 153.726 161.89C154.018 162.086 154.36 162.184 154.752 162.184C155.14 162.184 155.496 162.088 155.82 161.896C156.144 161.7 156.404 161.438 156.6 161.11C156.796 160.778 156.894 160.408 156.894 160C156.894 159.6 156.798 159.236 156.606 158.908C156.414 158.576 156.156 158.312 155.832 158.116C155.508 157.92 155.148 157.822 154.752 157.822ZM160.777 163.114C160.453 163.102 160.137 163.042 159.829 162.934C159.525 162.822 159.257 162.672 159.025 162.484C158.797 162.292 158.631 162.072 158.527 161.824L159.391 161.452C159.451 161.588 159.559 161.716 159.715 161.836C159.871 161.956 160.051 162.052 160.255 162.124C160.459 162.196 160.665 162.232 160.873 162.232C161.093 162.232 161.299 162.198 161.491 162.13C161.683 162.062 161.839 161.962 161.959 161.83C162.083 161.694 162.145 161.532 162.145 161.344C162.145 161.144 162.077 160.988 161.941 160.876C161.809 160.76 161.641 160.67 161.437 160.606C161.237 160.538 161.033 160.474 160.825 160.414C160.413 160.31 160.045 160.186 159.721 160.042C159.397 159.894 159.141 159.708 158.953 159.484C158.769 159.256 158.677 158.966 158.677 158.614C158.677 158.242 158.779 157.92 158.983 157.648C159.191 157.376 159.463 157.166 159.799 157.018C160.135 156.87 160.495 156.796 160.879 156.796C161.363 156.796 161.805 156.9 162.205 157.108C162.605 157.316 162.903 157.598 163.099 157.954L162.289 158.428C162.221 158.284 162.117 158.158 161.977 158.05C161.837 157.938 161.677 157.85 161.497 157.786C161.317 157.722 161.133 157.688 160.945 157.684C160.713 157.676 160.495 157.706 160.291 157.774C160.091 157.842 159.929 157.946 159.805 158.086C159.685 158.222 159.625 158.392 159.625 158.596C159.625 158.796 159.689 158.948 159.817 159.052C159.949 159.156 160.119 159.24 160.327 159.304C160.539 159.364 160.769 159.434 161.017 159.514C161.381 159.63 161.721 159.764 162.037 159.916C162.353 160.068 162.607 160.258 162.799 160.486C162.995 160.714 163.091 160.996 163.087 161.332C163.087 161.7 162.977 162.022 162.757 162.298C162.537 162.57 162.251 162.778 161.899 162.922C161.551 163.066 161.177 163.13 160.777 163.114Z" fill="#AEA7C3"/>
<path d="M129.96 169.007C129.752 165.013 128.376 161.343 127.79 157.431C126.455 148.5 125.664 139.602 123.754 130.743C122.81 126.349 121.218 121.921 120.559 117.498C119.981 113.593 120.065 109.488 119.974 105.547C119.864 101.323 119.812 97.0995 119.817 92.8748C119.882 86.033 121.317 76.6391 118.027 70.4494C115.03 64.8149 108.242 63.8027 102.771 61.8591C100.762 61.1459 98.808 60.1185 96.81 59.4561C96.9197 56.736 94.424 52.1491 92.6712 50.2341C92.1992 49.7167 91.6429 49.3232 91.0574 48.9426C94.3289 46.1862 97.1869 42.4388 98.4457 38.3277C100.678 37.2016 102.2 34.5583 102.947 32.2321C103.441 30.7036 103.635 28.89 102.83 27.431C102.46 26.7579 101.893 26.271 101.256 25.861C102.819 21.4287 102.204 15.885 100.232 11.6835C100.09 11.381 99.9412 11.0823 99.785 10.7874C99.6289 10.4922 99.4654 10.2012 99.2946 9.91434C99.1239 9.62751 98.9458 9.34512 98.7604 9.06704C98.575 8.78903 98.3835 8.51574 98.1859 8.24731C97.9858 7.9786 97.781 7.71517 97.5711 7.45699C97.3589 7.19862 97.1417 6.94565 96.9197 6.69828C96.6953 6.45065 96.4647 6.20875 96.2281 5.97261C95.9939 5.73647 95.7524 5.50648 95.5036 5.28258C95.2571 5.05848 95.0058 4.8406 94.7497 4.62894C94.4912 4.41756 94.2277 4.21255 93.9593 4.01396C93.6909 3.81551 93.4189 3.62376 93.1432 3.43885C92.8651 3.25394 92.5833 3.07601 92.2979 2.90513C92.0125 2.73418 91.7222 2.57055 91.427 2.41403C91.1318 2.25759 90.8342 2.10852 90.5341 1.96685C90.2316 1.82518 89.9267 1.6911 89.6193 1.56461C89.3119 1.43813 89.0008 1.31937 88.6861 1.20835C88.3056 1.07748 87.9213 0.957013 87.5335 0.846945C87.1455 0.736945 86.7552 0.63748 86.3624 0.548619C85.9697 0.459757 85.5744 0.381635 85.1768 0.314185C84.7792 0.246803 84.3803 0.190161 83.9802 0.144397C83.5801 0.0986317 83.1789 0.0636749 82.7764 0.0396637C82.3739 0.0156526 81.9713 0.00251743 81.5687 0.000328376C81.1662 -0.00186068 80.7637 0.00689732 80.3611 0.0265304C79.9585 0.0461634 79.5573 0.0767415 79.1572 0.118197C73.1705 1.01803 68.2047 3.32167 64.5417 8.35273C60.7616 13.5448 60.3846 19.7275 61.1238 25.8995C60.0004 26.6072 59.1331 27.1873 58.8623 28.5593C58.3683 31.0901 59.9236 33.8472 61.3507 35.8104C61.8703 36.5197 62.4107 37.212 62.9718 37.887C62.9901 37.9517 63.0121 38.016 63.034 38.0814C63.3084 39.0345 63.2938 39.988 63.8025 40.8797C64.9002 42.8083 70.2357 46.3403 70.9602 48.7069C70.909 48.7988 70.8578 48.891 70.8029 48.9817C69.9283 50.4537 68.3108 51.3491 67.5497 52.9642C66.7007 54.7573 66.2653 58.2501 65.0869 59.6422C65.0065 59.7128 64.9259 59.7855 64.8455 59.8546C64.0806 60.4998 62.8072 60.9487 61.8887 61.3569C52.8976 65.3457 43.7817 63.988 42.3183 76.6547C41.9026 80.2558 41.9528 83.962 41.9103 87.5866C41.8927 94.6689 41.7977 101.75 41.6252 108.83C41.5502 111.812 41.6384 114.856 41.342 117.822C40.916 122.079 38.6245 125.983 37.6471 130.133C36.0959 136.72 35.6363 143.484 34.6852 150.171C33.8439 156.087 31.5715 166.159 32.0709 171.835C32.5016 176.728 35.6472 184.779 38.6655 188.587C39.259 189.335 40.0293 190.111 41.0309 190.197C41.5374 190.241 41.9652 190.015 42.401 189.787C43.0758 189.012 43.1845 188.389 43.0999 187.365C42.8317 184.121 40.4637 180.703 39.4852 177.581C40.2057 178.209 40.7297 178.738 41.6973 178.93C42.2835 178.788 42.6469 178.762 42.9528 178.159C43.7594 176.571 42.8292 167.734 42.1131 166.006C41.7888 165.224 41.3482 164.465 40.9431 163.724C41.9015 156.734 43.8592 149.652 46.4315 143.092C48.1258 138.777 50.1933 134.516 51.5217 130.073C53.1025 124.795 52.7183 118.636 53.3587 113.159C54.0723 107.047 55.5214 100.765 55.7556 94.6353C57.1206 96.3846 60.1799 111.874 60.4689 114.626C60.5934 115.869 60.6495 117.116 60.6373 118.365C60.6226 119.615 60.5397 120.86 60.3885 122.1C59.587 128.507 56.4729 134.13 54.3286 140.12C52.1805 146.124 51.1083 152.765 50.5448 159.099C49.0956 175.36 51.3242 192.449 54.5957 208.394C55.9021 214.755 58.0136 221.323 58.5808 227.775C59.4005 237.138 56.9267 246.438 56.9231 255.817C56.9231 267.944 59.781 280.356 61.3729 292.375C62.0975 297.829 64.3956 308.52 61.201 313.091C60.6154 313.929 59.8945 314.647 59.0858 315.267C56.3522 317.36 47.5514 320.064 46.589 322.564C46.7427 323.318 46.8196 323.594 47.4783 324.081C48.8249 325.072 50.8485 325.524 52.4697 325.737C55.2215 326.098 68.7942 326.113 71.1289 325.622C72.2596 325.385 73.7307 324.877 74.3931 323.87C75.0335 322.892 75.1029 321.377 75.0811 320.236C75.0188 317.039 74.0674 313.85 73.8515 310.639C73.416 304.133 73.8003 297.521 74.1113 291.011C74.6016 280.63 76.3947 270.352 76.8375 259.99C77.0937 253.985 76.468 248.015 76.5082 242.019C76.5338 238.193 77.1486 234.38 77.262 230.554C77.5146 222.181 77.4157 213.825 77.7817 205.446C78.2915 195.736 78.6916 186.022 78.982 176.303C79.0259 174.301 79.4247 171.422 79.0002 169.502C78.9234 169.165 78.8099 168.95 78.6416 168.652L82.9524 168.698C83.4647 169.744 83.6366 170.651 83.2341 171.774C83.1573 171.988 83.0658 172.186 82.9487 172.381C82.978 172.428 83.0073 172.473 83.0329 172.521C83.7465 173.811 83.8013 190.729 83.9551 194.195C84.2917 201.925 84.7162 209.637 84.8992 217.375C85.009 221.867 84.8773 226.368 85.0127 230.856C85.1188 234.365 85.6787 237.862 85.7153 241.369C85.7775 247.458 85.0237 253.484 85.2725 259.606C85.825 273.223 87.9585 286.688 88.2439 300.356C88.3135 303.658 88.2586 307.018 87.9695 310.307C87.6255 314.272 85.664 319.336 86.7948 323.165C87.1753 324.455 88.017 324.974 89.2759 325.369C91.5227 326.072 107.207 326.102 110.164 325.814C111.679 325.667 113.377 325.445 114.72 324.664C115.232 324.364 115.836 323.894 116.011 323.293C116.183 322.707 116.176 322.077 115.792 321.576C114.204 319.513 110.076 318.865 107.785 317.756C106.153 316.966 104.579 315.936 103.145 314.828C99.9723 312.374 99.0208 310.426 99.1928 306.404C99.3684 302.41 100.045 298.331 100.591 294.373C102.109 283.383 104.312 272.209 104.931 261.142C105.158 256.732 105.088 252.328 104.722 247.928C104.14 241.043 103.09 234.485 103.957 227.549C104.598 222.458 106.204 217.427 107.214 212.391C110.233 197.358 113.077 181.195 112.319 165.805C111.862 156.467 109.684 146.87 106.577 138.064C104.671 132.662 101.681 127.186 101.169 121.422C100.437 113.116 106.449 98.7011 105.509 94.8204C106.954 96.6767 107.463 108.957 107.858 112.155C108.488 117.284 108.202 123.448 109.673 128.205C111.199 133.14 121.665 157.049 121.53 159.121C121.522 159.193 121.5 159.262 121.489 159.332C121.475 159.453 121.467 159.574 121.453 159.694C121.306 160.835 120.465 162.107 120.117 163.243C119.272 165.997 116.432 176.832 118.119 179.143C118.401 179.529 118.752 179.709 119.232 179.73C120.066 179.766 121.383 179.116 121.921 178.508C122.108 178.299 122.218 178.062 122.338 177.813C123.103 181.796 116.004 186.751 119.396 190.131C120.209 190.427 120.659 190.521 121.497 190.116C125.222 188.321 127.634 182.909 128.75 179.189C128.994 178.366 129.202 177.533 129.376 176.692C129.549 175.85 129.685 175.003 129.785 174.15C129.888 173.297 129.954 172.441 129.983 171.582C130.012 170.724 130.004 169.865 129.96 169.007ZM91.9101 51.5656C93.3153 52.9832 95.0718 56.6248 95.0353 58.5562C94.501 58.4508 93.7727 57.9074 93.3117 57.598C90.8087 55.924 90.6843 53.5034 90.1793 50.8326C91.0026 50.9105 91.2916 50.9414 91.9101 51.5656ZM101.512 28.2613C101.97 28.99 101.849 30.0908 101.677 30.8954C101.359 32.3875 100.51 34.5438 99.2069 35.4029C99.1191 35.9181 99.0752 35.9511 98.7129 36.331C98.0945 34.2569 100.052 30.1693 99.6534 27.6789C99.9132 27.6396 100.29 27.5511 100.546 27.5944C101.026 27.6746 101.26 27.8583 101.512 28.2613ZM91.7088 4.10391C95.6646 6.41241 98.7714 10.5959 99.9314 15.0252C100.674 17.8618 101.161 23.152 99.646 25.7592L99.7155 26.2089C99.3935 26.4305 99.3387 26.364 98.9654 26.347C94.8376 23.8327 89.6998 19.7128 88.1995 14.8719C87.442 12.4296 87.3542 9.88007 87.1309 7.34925C86.9919 5.76821 86.9552 3.99172 86.1282 2.59456C87.9397 2.23617 90.1645 3.201 91.7088 4.10391ZM65.7162 9.18539C69.0316 4.53598 73.8217 2.39946 79.2778 1.49655C81.0453 1.39927 82.703 1.44476 84.4632 1.60504C84.6389 1.83653 84.8511 2.07412 84.9756 2.33735C85.8538 4.17431 86.6406 11.6858 85.9014 13.4483C85.8648 13.8558 85.7989 14.0523 85.5866 14.401C82.8934 18.8406 72.3543 24.2895 67.4398 25.4315C66.298 26.2994 63.9487 26.4541 62.5691 26.6458C63.0046 25.4054 62.4813 23.4037 62.3422 22.089C61.8702 17.6806 63.1473 12.7887 65.7162 9.18539ZM64.0292 36.0312L63.4327 36.1808C62.6679 34.6002 61.3396 33.3527 60.6663 31.6527C60.1173 30.2723 60.132 28.9995 60.7321 27.6606C61.4164 27.6412 61.5226 27.6349 62.1483 27.9921C63.462 29.7461 64.1756 33.8495 64.0292 36.0312ZM69.1304 44.2818C68.7913 43.7916 68.4729 43.2879 68.1753 42.7706C67.88 42.2532 67.6068 41.7241 67.3556 41.1833C67.1043 40.6422 66.8762 40.0915 66.6713 39.531C66.4663 38.9706 66.2858 38.4023 66.1297 37.8262C65.4527 35.3667 65.1929 29.447 63.7218 27.6768C67.6007 27.2373 71.6772 25.4976 75.1647 23.7788C77.9275 22.4182 85.2829 18.328 86.2306 15.5529C87.5553 16.0114 88.6678 19.1422 89.5716 20.3537C91.8734 23.4253 95.0423 24.8825 97.9077 27.2113C97.948 27.244 97.9883 27.2774 98.0285 27.3109C98.7165 29.08 97.2491 36.7103 96.594 38.755C95.0461 43.5833 90.5194 48.6626 86.0148 50.8995C82.7762 52.5074 80.1232 52.439 76.7675 51.3041C76.2149 50.722 75.3293 50.2613 74.6743 49.7557C72.6361 48.1853 70.6124 46.3978 69.1304 44.2818ZM67.147 57.8956C67.4362 55.4034 69.833 51.9257 71.6773 50.2811C72.1457 50.384 72.036 50.3542 72.2885 50.6978C72.2775 52.1682 72.1165 54.4995 71.0663 55.5849C71.0516 55.636 71.0443 55.6892 71.026 55.7385C70.5759 56.9473 68.4608 58.068 67.3337 58.5617L67.1836 58.4779C67.1324 58.2223 67.1104 58.1966 67.147 57.8956ZM124.438 185.133C123.732 186.253 122.213 188.441 120.79 188.666C120.402 188.727 120.314 188.53 120.018 188.306C119.623 186.347 121.829 184.222 122.598 182.409C123.556 180.144 125.456 175.339 124.237 172.894C123.897 172.209 123.644 172.035 122.953 171.782C120.87 172.824 122.25 176.305 120.779 177.928C120.472 178.267 120.296 178.188 119.868 178.238C119.242 177.806 119.03 177.654 118.869 176.855C118.309 174.08 121.624 162.204 123.147 159.65L123.293 159.404C121.798 155.083 120.179 150.809 118.437 146.583C115.843 140.312 110.771 130.022 110.163 123.483C109.991 121.653 110.291 119.818 110.112 117.994C109.786 114.603 109.168 111.233 108.809 107.84C108.226 101.799 107.864 95.744 107.722 89.6761C107.657 87.3154 109.051 81.6225 108.129 79.8085C108.33 82.2684 107.06 85.5977 106.453 88.0017C104.242 96.7861 99.679 110.607 99.6424 119.152C99.6132 126.645 103.401 133.175 105.691 140.116C108.633 149.027 110.69 158.466 110.851 167.878C111.1 182.267 108.729 196.864 105.918 210.924C104.81 216.487 103.101 222.1 102.438 227.728C101.648 234.428 102.57 240.685 103.122 247.343C103.491 251.757 103.57 256.177 103.36 260.601C102.618 275.241 98.8447 289.66 97.9006 304.266C97.5237 310.092 98.0507 312.89 102.885 316.569C104.846 318.06 106.947 319.284 109.274 320.089C110.793 320.613 113.157 321.065 114.225 322.289L114.192 322.769C113.987 322.974 113.815 323.151 113.555 323.287C112.663 323.757 111.51 324.024 110.511 324.13C107.159 324.486 92.8799 324.604 89.8097 323.76C89.1766 323.586 88.6753 323.377 88.4008 322.754C87.4054 320.49 89.4217 311.725 89.6596 308.625C90.8598 292.928 87.5665 277.36 86.8601 261.759C86.5491 254.932 87.2407 248.273 87.2115 241.481C87.1969 237.774 86.6553 234.091 86.5528 230.388C86.2747 220.322 86.2967 210.304 85.8026 200.231C85.5026 194.156 85.1293 188.061 85.0122 181.982C84.9244 177.641 85.1366 173.244 84.8914 168.913C84.8621 168.422 84.7817 168.045 84.5328 167.616C84.5035 167.572 84.4743 167.53 84.445 167.487C82.1908 167.086 79.6987 167.304 77.4153 167.352C77.4482 167.454 77.4885 167.556 77.5214 167.659C77.8325 168.637 77.4921 169.591 77.053 170.459C78.235 172.466 77.3018 181.985 77.1921 184.637C76.7261 194.244 76.3212 203.853 75.9771 213.465C75.8235 218.994 75.9368 224.533 75.7539 230.058C75.6331 233.845 75.0586 237.612 74.9562 241.398C74.7769 247.898 75.4758 254.351 75.1538 260.881C74.8135 267.804 73.8438 274.661 73.2436 281.561C72.6068 289.642 72.2287 297.736 72.1092 305.841C72.0872 308.512 72.2788 311.167 72.6837 313.807C73.035 315.986 73.6132 318.28 73.6424 320.488C73.6571 321.47 73.5912 322.681 72.8227 323.386C72.2776 323.888 71.5274 324.103 70.8101 324.195C69.339 324.383 67.7106 324.153 66.2103 324.181C62.0679 324.257 57.7022 324.655 53.5818 324.303C52.0631 324.174 49.6662 324.021 48.6197 322.775C48.5977 322.244 48.6269 322.033 49.132 321.766C50.1091 321.25 51.4155 321.019 52.4693 320.61C56.2861 319.129 61.3177 316.49 63.3487 312.744C63.8354 311.85 64.0805 310.85 64.2232 309.847C64.9039 304.976 63.8317 299.38 63.2059 294.516C61.9654 284.911 60.2382 275.365 59.2062 265.737C58.872 262.872 58.6744 259.997 58.6134 257.114C58.5524 254.23 58.6293 251.35 58.8439 248.473C59.3819 241.589 60.6041 234.715 60.0003 227.791C59.4807 221.851 57.64 215.986 56.469 210.144C54.1599 198.626 52.3559 186.978 51.8509 175.224C51.3385 163.35 52.0631 150.848 56.0336 139.551C58.2768 133.171 61.6507 127.559 62.0862 120.615C62.6461 111.651 59.5247 102.271 57.4169 93.6278C56.202 88.6491 55.1261 83.6368 53.7465 78.7005C53.9734 81.6377 54.7748 84.5947 54.7162 87.5385C54.5369 96.6021 52.634 105.954 51.5984 114.973C51.0312 119.938 51.3788 125.108 49.9114 129.922C48.5831 134.277 46.6473 138.492 44.9746 142.726C42.7573 148.343 40.7912 154.496 39.8177 160.468C39.1675 164.457 40.2774 164.269 41.1055 167.663C41.3305 168.584 41.9314 176.649 41.7868 177.52L41.4948 177.541C39.7284 175.761 38.7978 171.965 37.798 169.632C37.5079 175.056 38.3828 178.714 40.4069 183.662C40.9272 184.935 41.6554 186.356 41.7597 187.735C41.4724 188.322 41.5119 188.308 40.9041 188.534C40.6559 188.404 40.5817 188.381 40.3757 188.22C37.9795 186.34 34.3717 177.012 33.8568 173.898C33.5278 171.908 33.4865 169.96 33.6387 167.952C34.0899 162.002 35.4336 156.009 36.2585 150.087C37.1367 143.778 37.4485 137.344 38.9251 131.134C39.8886 127.082 42.37 122.731 42.8362 118.763C43.9593 109.2 42.0886 78.4161 45.109 71.7014C45.3157 71.2419 45.5637 70.806 45.853 70.3938C50.7822 63.298 66.5212 64.7994 72.2261 56.5951C73.4447 54.8425 73.6716 52.84 73.3276 50.766C75.9148 51.8811 77.8653 53.4603 80.8257 53.6352C83.5666 53.7972 86.3624 52.6542 88.4043 50.8358L88.9385 51.1235C88.9605 52.2049 88.9239 53.3759 89.1765 54.4315C91.1196 62.5111 106.855 63.4426 112.922 67.2527C115.905 69.1259 117.39 71.8749 118.012 75.2975C119.008 80.7471 118.404 86.7027 118.323 92.2354C118.225 99.0732 118.265 105.973 118.66 112.802C119.125 120.85 122.111 129.415 123.608 137.537C124.855 144.313 125.144 151.179 126.326 157.93C126.667 159.874 127.307 161.778 127.757 163.703C129.463 170.965 128.438 178.761 124.438 185.133Z" fill="#605B73"/>
</svg>
