<svg width="24" height="24" viewBox="0 0 24 24" fill="none" xmlns="http://www.w3.org/2000/svg">
<path d="M18.6936 8.35593C17.559 8.33765 16.7998 7.76783 16.7594 6.90415C16.7465 6.62978 16.5204 6.41406 16.2458 6.41406H5.2072C4.93263 6.41406 4.70647 6.62978 4.69361 6.90415C4.65324 7.76763 3.88417 8.33725 2.73447 8.35593C2.45367 8.36035 2.22852 8.58933 2.22852 8.87012V12.606C2.22852 12.8868 2.45367 13.1158 2.73447 13.1202C3.90285 13.1391 4.65344 13.6951 4.69361 14.5714C4.70607 14.846 4.93243 15.0621 5.2072 15.0621H16.2211C16.4957 15.0621 16.7218 14.8462 16.7347 14.572C16.7753 13.7085 17.5441 13.1389 18.6938 13.1202C18.9746 13.1158 19.1998 12.8868 19.1998 12.606V8.86992C19.1998 8.58912 18.9744 8.36035 18.6936 8.35593ZM18.1712 12.1294C17.5415 12.2144 16.995 12.4407 16.5704 12.795C16.1835 13.1146 15.9072 13.5478 15.7808 14.0335H5.65049C5.39681 13.011 4.5028 12.2975 3.2571 12.1294V9.34675C3.88678 9.26159 4.4333 9.03542 4.85791 8.68092C5.24476 8.36156 5.52114 7.92811 5.64747 7.44244H15.8057C16.0375 8.34629 16.8032 9.16578 18.1712 9.34735V12.1294Z" fill="#AEA7C3"/>
<path d="M10.715 8.03906C9.22245 8.03906 8.0127 9.24901 8.0127 10.7414C8.0127 12.2337 9.22245 13.4435 10.715 13.4435C12.2074 13.4435 13.4171 12.2337 13.4171 10.7414C13.4155 9.24962 12.2066 8.04087 10.715 8.03906ZM10.715 12.4149C9.79047 12.4149 9.04107 11.6655 9.04107 10.741C9.04107 9.81663 9.79067 9.06724 10.715 9.06724C11.6395 9.06744 12.3887 9.81683 12.3887 10.7414C12.3877 11.6653 11.6389 12.4141 10.715 12.4151V12.4149Z" fill="#AEA7C3"/>
<path d="M22.1258 6.77407H21.4291V6.07731C21.4278 5.0427 20.5895 4.20413 19.5549 4.20312H1.87418C0.839575 4.20413 0.00120513 5.0427 0 6.07731V15.401C0.00120513 16.4356 0.839575 17.274 1.87418 17.2752H2.57095V17.972C2.57215 19.0066 3.41052 19.8449 4.44513 19.8461H22.1258C23.1604 19.8449 23.9988 19.0066 24 17.972V8.64825C23.9988 7.61365 23.1604 6.77508 22.1258 6.77407ZM1.02838 15.401V6.07731C1.02898 5.61032 1.40719 5.23191 1.87418 5.2315H19.5549C20.0219 5.23191 20.4001 5.61032 20.4007 6.07731V15.401C20.4001 15.8678 20.0219 16.2462 19.5549 16.2468H1.87418C1.40719 16.2462 1.02898 15.8678 1.02838 15.401ZM22.9716 17.972C22.971 18.4387 22.5928 18.8172 22.1258 18.8178H4.44513C3.97814 18.8172 3.59993 18.4387 3.59933 17.972V17.2752H19.5549C20.5895 17.274 21.4278 16.4356 21.4291 15.401V7.80245H22.1258C22.5928 7.80285 22.9712 8.18126 22.9716 8.64825V17.972Z" fill="#AEA7C3"/>
</svg>
