<svg width="45" height="57" viewBox="0 0 45 57" fill="none" xmlns="http://www.w3.org/2000/svg">
<rect width="45" height="58" fill="#EC4A8A" fill-opacity="0.1"/>
<g clip-path="url(#clip0_909_46793)">
<path d="M31.25 22.25H14.75" stroke="#EC4A8A" stroke-linecap="round" stroke-linejoin="round"/>
<path d="M20.75 26.75V32.75" stroke="#EC4A8A" stroke-width="1.2" stroke-linecap="round" stroke-linejoin="round"/>
<path d="M25.25 26.75V32.75" stroke="#EC4A8A" stroke-width="1.2" stroke-linecap="round" stroke-linejoin="round"/>
<mask id="path-5-inside-1_909_46793" fill="white">
<path d="M29.75 22.25V36.5C29.75 36.6989 29.671 36.8897 29.5303 37.0303C29.3897 37.171 29.1989 37.25 29 37.25H17C16.8011 37.25 16.6103 37.171 16.4697 37.0303C16.329 36.8897 16.25 36.6989 16.25 36.5V22.25"/>
</mask>
<path d="M30.95 22.25C30.95 21.5873 30.4127 21.05 29.75 21.05C29.0873 21.05 28.55 21.5873 28.55 22.25H29.75H30.95ZM17.45 22.25C17.45 21.5873 16.9127 21.05 16.25 21.05C15.5873 21.05 15.05 21.5873 15.05 22.25H16.25H17.45ZM29.75 22.25H28.55V36.5H29.75H30.95V22.25H29.75ZM29.75 36.5H28.55C28.55 36.3807 28.5974 36.2662 28.6818 36.1818L29.5303 37.0303L30.3789 37.8789C30.7446 37.5132 30.95 37.0172 30.95 36.5H29.75ZM29.5303 37.0303L28.6818 36.1818C28.7662 36.0974 28.8807 36.05 29 36.05V37.25V38.45C29.5172 38.45 30.0132 38.2446 30.3789 37.8789L29.5303 37.0303ZM29 37.25V36.05H17V37.25V38.45H29V37.25ZM17 37.25V36.05C17.1193 36.05 17.2338 36.0974 17.3182 36.1818L16.4697 37.0303L15.6211 37.8789C15.9868 38.2446 16.4828 38.45 17 38.45V37.25ZM16.4697 37.0303L17.3182 36.1818C17.4026 36.2662 17.45 36.3807 17.45 36.5H16.25H15.05C15.05 37.0172 15.2554 37.5132 15.6211 37.8789L16.4697 37.0303ZM16.25 36.5H17.45V22.25H16.25H15.05V36.5H16.25Z" fill="#EC4A8A" mask="url(#path-5-inside-1_909_46793)"/>
<mask id="path-7-inside-2_909_46793" fill="white">
<path d="M26.75 22.25V20.75C26.75 20.3522 26.592 19.9706 26.3107 19.6893C26.0294 19.408 25.6478 19.25 25.25 19.25H20.75C20.3522 19.25 19.9706 19.408 19.6893 19.6893C19.408 19.9706 19.25 20.3522 19.25 20.75V22.25"/>
</mask>
<path d="M25.55 22.25C25.55 22.9127 26.0873 23.45 26.75 23.45C27.4127 23.45 27.95 22.9127 27.95 22.25H26.75H25.55ZM25.25 19.25V18.05V19.25ZM20.75 19.25V18.05V19.25ZM18.05 22.25C18.05 22.9127 18.5873 23.45 19.25 23.45C19.9127 23.45 20.45 22.9127 20.45 22.25H19.25H18.05ZM26.75 22.25H27.95V20.75H26.75H25.55V22.25H26.75ZM26.75 20.75H27.95C27.95 20.0339 27.6655 19.3472 27.1592 18.8408L26.3107 19.6893L25.4621 20.5379C25.5184 20.5941 25.55 20.6704 25.55 20.75H26.75ZM26.3107 19.6893L27.1592 18.8408C26.6528 18.3345 25.9661 18.05 25.25 18.05V19.25V20.45C25.3296 20.45 25.4059 20.4816 25.4621 20.5379L26.3107 19.6893ZM25.25 19.25V18.05H20.75V19.25V20.45H25.25V19.25ZM20.75 19.25V18.05C20.0339 18.05 19.3472 18.3345 18.8408 18.8408L19.6893 19.6893L20.5379 20.5379C20.5941 20.4816 20.6704 20.45 20.75 20.45V19.25ZM19.6893 19.6893L18.8408 18.8408C18.3345 19.3472 18.05 20.0339 18.05 20.75H19.25H20.45C20.45 20.6704 20.4816 20.5941 20.5379 20.5379L19.6893 19.6893ZM19.25 20.75H18.05V22.25H19.25H20.45V20.75H19.25Z" fill="#EC4A8A" mask="url(#path-7-inside-2_909_46793)"/>
</g>
<defs>
<clipPath id="clip0_909_46793">
<rect width="24" height="24" fill="white" transform="translate(11 17)"/>
</clipPath>
</defs>
</svg>
