<svg width="24" height="24" viewBox="0 0 24 24" fill="none" xmlns="http://www.w3.org/2000/svg">
<path d="M18 2.25H4C3.53668 2.25263 3.09309 2.43784 2.76546 2.76546C2.43784 3.09309 2.25263 3.53668 2.25 4V18C2.25263 18.4633 2.43784 18.9069 2.76546 19.2345C3.09309 19.5622 3.53668 19.7474 4 19.75H12C12.1393 19.75 12.2758 19.7112 12.3943 19.638C12.5128 19.5648 12.6085 19.46 12.6708 19.3354C12.7331 19.2108 12.7595 19.0714 12.747 18.9326C12.7345 18.7939 12.6836 18.6614 12.6 18.55C11.9768 17.7358 11.6705 16.7229 11.7382 15.6998C11.8059 14.6767 12.2429 13.713 12.9679 12.9879C13.693 12.2629 14.6567 11.8259 15.6798 11.7582C16.7029 11.6905 17.7158 11.9968 18.53 12.62C18.6414 12.7036 18.7739 12.7545 18.9126 12.767C19.0514 12.7795 19.1908 12.7531 19.3154 12.6908C19.44 12.6285 19.5448 12.5328 19.618 12.4143C19.6912 12.2958 19.73 12.1593 19.73 12.02V4C19.7275 3.5401 19.545 3.09947 19.2217 2.77241C18.8983 2.44535 18.4598 2.25783 18 2.25ZM13.25 3.75V8C13.25 8.0663 13.2237 8.12989 13.1768 8.17678C13.1299 8.22366 13.0663 8.25 13 8.25H9C8.9337 8.25 8.87011 8.22366 8.82322 8.17678C8.77634 8.12989 8.75 8.0663 8.75 8V3.75H13.25ZM18.25 10.75C17.5428 10.4291 16.7766 10.2588 16 10.25C14.4758 10.2526 13.0148 10.8593 11.9371 11.9371C10.8593 13.0148 10.2526 14.4758 10.25 16C10.2494 16.7744 10.4094 17.5406 10.72 18.25H4C3.9337 18.25 3.87011 18.2237 3.82322 18.1768C3.77634 18.1299 3.75 18.0663 3.75 18V4C3.75 3.9337 3.77634 3.87011 3.82322 3.82322C3.87011 3.77634 3.9337 3.75 4 3.75H7.25V8C7.25262 8.46332 7.43784 8.90691 7.76546 9.23454C8.09309 9.56216 8.53668 9.74738 9 9.75H13C13.4633 9.74738 13.9069 9.56216 14.2345 9.23454C14.5622 8.90691 14.7474 8.46332 14.75 8V3.75H18C18.0663 3.75 18.1299 3.77634 18.1768 3.82322C18.2237 3.87011 18.25 3.9337 18.25 4V10.75Z" fill="white"/>
<path d="M16 10.25C14.8628 10.25 13.7511 10.5872 12.8055 11.219C11.8599 11.8509 11.1229 12.7489 10.6877 13.7996C10.2525 14.8502 10.1386 16.0064 10.3605 17.1218C10.5824 18.2372 11.13 19.2617 11.9341 20.0659C12.7383 20.87 13.7628 21.4177 14.8782 21.6395C15.9936 21.8614 17.1498 21.7475 18.2004 21.3123C19.2511 20.8771 20.1491 20.1401 20.781 19.1945C21.4128 18.2489 21.75 17.1372 21.75 16C21.7474 14.4758 21.1407 13.0148 20.0629 11.9371C18.9852 10.8593 17.5242 10.2526 16 10.25ZM16 20.25C15.1594 20.25 14.3377 20.0007 13.6388 19.5337C12.9399 19.0668 12.3952 18.403 12.0735 17.6264C11.7518 16.8498 11.6677 15.9953 11.8317 15.1709C11.9957 14.3464 12.4004 13.5892 12.9948 12.9948C13.5892 12.4004 14.3464 11.9956 15.1709 11.8317C15.9953 11.6677 16.8498 11.7518 17.6264 12.0735C18.403 12.3952 19.0668 12.9399 19.5337 13.6388C20.0007 14.3377 20.25 15.1594 20.25 16C20.2474 17.1264 19.7987 18.2058 19.0023 19.0023C18.2058 19.7987 17.1264 20.2474 16 20.25Z" fill="#EC4A8A"/>
<path d="M17.0004 14.4708L15.5004 15.9408L15.0004 15.4708C14.9386 15.3755 14.8559 15.2954 14.7587 15.2367C14.6614 15.178 14.552 15.1422 14.4389 15.1319C14.3257 15.1216 14.2117 15.1372 14.1055 15.1774C13.9992 15.2177 13.9035 15.2815 13.8255 15.3642C13.7476 15.4468 13.6894 15.5461 13.6554 15.6545C13.6214 15.7629 13.6125 15.8776 13.6294 15.99C13.6462 16.1024 13.6884 16.2094 13.7526 16.3031C13.8169 16.3968 13.9016 16.4747 14.0004 16.5308L15.0004 17.5308C15.141 17.6713 15.3316 17.7502 15.5304 17.7502C15.7291 17.7502 15.9198 17.6713 16.0604 17.5308L18.0604 15.5308C18.1929 15.3886 18.265 15.2006 18.2616 15.0063C18.2581 14.812 18.1794 14.6266 18.042 14.4892C17.9046 14.3518 17.7192 14.2731 17.5249 14.2696C17.3306 14.2662 17.1426 14.3383 17.0004 14.4708Z" fill="#EC4A8A"/>
</svg>
