<svg width="35" height="35" viewBox="0 0 35 35" fill="none" xmlns="http://www.w3.org/2000/svg">
<rect width="35" height="35" rx="4" fill="#EC4A8A" fill-opacity="0.1"/>
<path d="M25.2594 13.2318L21.768 9.74122C21.6519 9.62511 21.5141 9.53301 21.3624 9.47018C21.2107 9.40734 21.0482 9.375 20.884 9.375C20.7198 9.375 20.5572 9.40734 20.4056 9.47018C20.2539 9.53301 20.1161 9.62511 20 9.74122L10.3664 19.3748C10.2498 19.4905 10.1574 19.6281 10.0945 19.7798C10.0316 19.9315 9.99948 20.0942 10 20.2584V23.7498C10 24.0813 10.1317 24.3993 10.3661 24.6337C10.6005 24.8681 10.9185 24.9998 11.25 24.9998H24.375C24.5408 24.9998 24.6997 24.934 24.8169 24.8168C24.9342 24.6995 25 24.5406 25 24.3748C25 24.2091 24.9342 24.0501 24.8169 23.9329C24.6997 23.8157 24.5408 23.7498 24.375 23.7498H16.5094L25.2594 14.9998C25.3755 14.8837 25.4676 14.7459 25.5304 14.5942C25.5933 14.4426 25.6256 14.28 25.6256 14.1158C25.6256 13.9517 25.5933 13.7891 25.5304 13.6374C25.4676 13.4857 25.3755 13.3479 25.2594 13.2318ZM14.7414 23.7498H11.25V20.2584L18.125 13.3834L21.6164 16.8748L14.7414 23.7498ZM22.5 15.9912L19.0094 12.4998L20.8844 10.6248L24.375 14.1162L22.5 15.9912Z" fill="#EC4A8A"/>
</svg>
