<svg width="20" height="20" viewBox="0 0 20 20" fill="none" xmlns="http://www.w3.org/2000/svg">
<path fill-rule="evenodd" clip-rule="evenodd" d="M2.5 5.83333C2.5 5.61232 2.5878 5.40036 2.74408 5.24408C2.90036 5.0878 3.11232 5 3.33333 5H16.6667C16.8877 5 17.0996 5.0878 17.2559 5.24408C17.4122 5.40036 17.5 5.61232 17.5 5.83333C17.5 6.05435 17.4122 6.26631 17.2559 6.42259C17.0996 6.57887 16.8877 6.66667 16.6667 6.66667H3.33333C3.11232 6.66667 2.90036 6.57887 2.74408 6.42259C2.5878 6.26631 2.5 6.05435 2.5 5.83333ZM5 10C5 9.77899 5.0878 9.56702 5.24408 9.41074C5.40036 9.25446 5.61232 9.16667 5.83333 9.16667H14.1667C14.3877 9.16667 14.5996 9.25446 14.7559 9.41074C14.9122 9.56702 15 9.77899 15 10C15 10.221 14.9122 10.433 14.7559 10.5893C14.5996 10.7455 14.3877 10.8333 14.1667 10.8333H5.83333C5.61232 10.8333 5.40036 10.7455 5.24408 10.5893C5.0878 10.433 5 10.221 5 10ZM8.33333 13.3333C8.11232 13.3333 7.90036 13.4211 7.74408 13.5774C7.5878 13.7337 7.5 13.9457 7.5 14.1667C7.5 14.3877 7.5878 14.5996 7.74408 14.7559C7.90036 14.9122 8.11232 15 8.33333 15H11.6667C11.8877 15 12.0996 14.9122 12.2559 14.7559C12.4122 14.5996 12.5 14.3877 12.5 14.1667C12.5 13.9457 12.4122 13.7337 12.2559 13.5774C12.0996 13.4211 11.8877 13.3333 11.6667 13.3333H8.33333Z" fill="#CAC3DF"/>
</svg>
