<svg width="24" height="24" viewBox="0 0 24 24" fill="none" xmlns="http://www.w3.org/2000/svg">
<path d="M21.0004 12.1631C21.0004 11.4076 20.9391 10.8562 20.8064 10.2844H12.1787V13.6946H17.243C17.1409 14.5421 16.5896 15.8184 15.3643 16.676L15.3471 16.7902L18.0751 18.9035L18.2641 18.9224C19.9998 17.3193 21.0004 14.9607 21.0004 12.1631Z" fill="#4285F4"/>
<path d="M12.1789 21.1483C14.6599 21.1483 16.7428 20.3314 18.2642 18.9224L15.3645 16.6761C14.5885 17.2173 13.547 17.595 12.1789 17.595C9.74881 17.595 7.68634 15.9921 6.95113 13.7764L6.84336 13.7856L4.00682 15.9808L3.96973 16.0839C5.48084 19.0857 8.58479 21.1483 12.1789 21.1483Z" fill="#34A853"/>
<path d="M6.95083 13.7761C6.75683 13.2043 6.64456 12.5917 6.64456 11.9587C6.64456 11.3256 6.75683 10.713 6.94062 10.1412L6.93548 10.0194L4.0634 7.78894L3.96943 7.83364C3.34662 9.07931 2.98926 10.4782 2.98926 11.9587C2.98926 13.4391 3.34662 14.8379 3.96943 16.0836L6.95083 13.7761Z" fill="#FBBC05"/>
<path d="M12.1789 6.32264C13.9044 6.32264 15.0683 7.06799 15.732 7.69086L18.3254 5.15869C16.7327 3.67819 14.6599 2.76947 12.1789 2.76947C8.58479 2.76947 5.48084 4.83194 3.96973 7.83375L6.94092 10.1413C7.68634 7.92568 9.74881 6.32264 12.1789 6.32264Z" fill="#EB4335"/>
</svg>
