<svg width="40" height="40" viewBox="0 0 40 40" fill="none" xmlns="http://www.w3.org/2000/svg">
<rect width="40" height="40" rx="20" fill="#B3B3B3" fill-opacity="0.1"/>
<path d="M18.5566 27.1602C18.703 27.4135 18.9134 27.624 19.1668 27.7703C19.4202 27.9165 19.7076 27.9936 20.0002 27.9936C20.2928 27.9936 20.5803 27.9165 20.8337 27.7703C21.0871 27.624 21.2975 27.4135 21.4438 27.1602" stroke="white" stroke-width="1.69201" stroke-linecap="round" stroke-linejoin="round"/>
<path d="M12.7187 22.7652C12.6098 22.8845 12.538 23.0329 12.5119 23.1923C12.4858 23.3517 12.5066 23.5152 12.5718 23.663C12.6369 23.8108 12.7436 23.9365 12.8789 24.0247C13.0142 24.113 13.1722 24.16 13.3337 24.1602H26.667C26.8285 24.1602 26.9866 24.1133 27.1219 24.0252C27.2573 23.9371 27.3641 23.8116 27.4294 23.6639C27.4948 23.5162 27.5158 23.3527 27.4899 23.1933C27.464 23.0339 27.3924 22.8854 27.2837 22.766C26.1754 21.6235 25.0004 20.4093 25.0004 16.6602C25.0004 15.3341 24.4736 14.0623 23.5359 13.1246C22.5982 12.1869 21.3265 11.6602 20.0004 11.6602C18.6743 11.6602 17.4025 12.1869 16.4648 13.1246C15.5272 14.0623 15.0004 15.3341 15.0004 16.6602C15.0004 20.4093 13.8245 21.6235 12.7187 22.7652Z" stroke="white" stroke-width="1.69201" stroke-linecap="round" stroke-linejoin="round"/>
</svg>
