<svg width="14" height="14" viewBox="0 0 14 14" fill="none" xmlns="http://www.w3.org/2000/svg">
<g clip-path="url(#clip0_780_8722)">
<path d="M13.4309 8.06455C13.2709 7.78564 13.1096 7.50674 12.9497 7.22646C12.8704 7.08291 12.8704 6.91475 12.9497 6.77119C12.9702 6.73428 12.9907 6.69873 13.0112 6.66318C13.111 6.48818 13.2122 6.31455 13.312 6.13955C13.3803 6.0206 13.45 5.90166 13.5184 5.78135C13.6756 5.49971 13.6346 5.13877 13.4049 4.90771C13.2997 4.80244 13.1534 4.73408 13.0262 4.66025L12.4766 4.34443C12.3549 4.27471 12.2018 4.20908 12.1184 4.09287C12.0186 3.95342 12.0309 3.79482 12.0309 3.63486V3.00732C12.0309 2.86377 12.0418 2.71475 12.0213 2.57256C11.9735 2.2458 11.6946 2.00381 11.3719 1.96963C11.2393 1.95596 11.0999 1.96689 10.9659 1.96689H10.3424C10.1797 1.96689 10.0211 1.97646 9.88442 1.86572C9.77505 1.77685 9.70942 1.62373 9.6397 1.50342C9.53442 1.32021 9.42915 1.13701 9.32388 0.955175C9.24731 0.822558 9.17759 0.673534 9.06138 0.570995C8.82485 0.361816 8.48579 0.329003 8.21235 0.482128C7.91294 0.650292 7.61626 0.825292 7.31958 0.996191C7.2813 1.01807 7.24438 1.04131 7.2061 1.06045C7.06938 1.13291 6.90395 1.12334 6.76997 1.04951C6.64966 0.982519 6.53208 0.912792 6.41177 0.843066C6.23677 0.743261 6.06313 0.642089 5.88813 0.540917C5.7145 0.441113 5.54087 0.361816 5.33306 0.387792C5.08013 0.419238 4.89145 0.570995 4.76567 0.787011C4.67544 0.94287 4.5852 1.1001 4.49497 1.25596C4.40884 1.40635 4.32134 1.55674 4.2352 1.70713C4.14224 1.86982 3.99458 1.96416 3.80454 1.96416C3.45454 1.96553 3.10454 1.96416 2.75317 1.96416C2.52622 1.96416 2.30884 2.02568 2.15161 2.20068C2.04087 2.32373 1.97798 2.47685 1.96431 2.64092C1.9602 2.68603 1.96294 2.73252 1.96294 2.77764C1.96294 3.12353 1.96704 3.46943 1.96294 3.81533C1.96157 4.01221 1.85083 4.15029 1.68677 4.24463C1.52954 4.33486 1.37231 4.42646 1.21509 4.5167L0.768017 4.7751C0.539697 4.90635 0.387939 5.1333 0.381103 5.40127C0.375634 5.59541 0.463134 5.75264 0.556103 5.91396C0.660009 6.09307 0.762548 6.27353 0.866454 6.454C0.933447 6.57021 1.01274 6.68643 1.0688 6.8081C1.13032 6.94209 1.11802 7.09795 1.04692 7.2251C1.02505 7.26475 1.00181 7.30439 0.978564 7.34267C0.811767 7.63252 0.640869 7.921 0.476806 8.21221C0.315478 8.50068 0.361962 8.87803 0.61079 9.10361C0.720165 9.20342 0.86372 9.27041 0.990869 9.34424C1.17407 9.44951 1.35591 9.55478 1.53911 9.66006C1.66489 9.73252 1.81392 9.79678 1.89321 9.92529C1.98071 10.0647 1.96431 10.2233 1.96431 10.3806V11.0108C1.96431 11.1544 1.952 11.3062 1.97798 11.4483C2.03813 11.7737 2.33345 12.0116 2.65884 12.0267C2.79009 12.0321 2.92134 12.0267 3.05259 12.0267H3.66509C3.83735 12.0267 4.00142 12.0239 4.13677 12.1538C4.2352 12.2481 4.29673 12.3944 4.36372 12.5106C4.46763 12.6911 4.57153 12.8729 4.67681 13.0534C4.75747 13.1929 4.82993 13.3433 4.95845 13.4458C5.19634 13.6358 5.51899 13.6591 5.78423 13.5087C5.91548 13.4349 6.04536 13.3583 6.17524 13.2831L6.68794 12.9878C6.72895 12.9646 6.7686 12.9372 6.81235 12.9181C6.94634 12.8593 7.09946 12.8716 7.22661 12.9427C7.52602 13.1108 7.8227 13.2858 8.11938 13.4581C8.15356 13.4772 8.18638 13.4978 8.22056 13.5169C8.37231 13.6003 8.54185 13.6263 8.71138 13.5962C8.94517 13.5552 9.1147 13.3952 9.22954 13.197C9.40591 12.8907 9.58228 12.5831 9.76001 12.2769C9.85435 12.1142 10.0047 12.0267 10.192 12.0267H11.2502C11.4813 12.0267 11.7042 11.9556 11.8559 11.771C11.9625 11.6411 12.0241 11.4825 12.0268 11.313C12.0282 11.2747 12.0268 11.2351 12.0268 11.1968V10.5993C12.0268 10.4571 12.0254 10.3149 12.0268 10.1728C12.0282 10.0456 12.076 9.92803 12.1676 9.84053C12.21 9.79951 12.2606 9.7708 12.3112 9.74209C12.6174 9.56572 12.9237 9.39072 13.2286 9.21299C13.461 9.079 13.6155 8.83701 13.61 8.56494C13.6114 8.37627 13.5225 8.22451 13.4309 8.06455ZM4.18325 5.07725C4.24204 4.84346 4.38013 4.61103 4.56606 4.45654C4.78208 4.27744 5.02134 4.17764 5.30024 4.14893C5.78696 4.09971 6.29829 4.39365 6.50474 4.83662C6.62505 5.09228 6.65513 5.35342 6.61001 5.63096C6.5731 5.86475 6.44595 6.08486 6.28462 6.25576L6.27095 6.26943L6.25317 6.28721C5.84438 6.67139 5.1895 6.75615 4.71509 6.43486C4.27212 6.13545 4.05337 5.60088 4.18325 5.07725ZM6.5936 7.96885L5.58052 8.98193L5.15806 9.40439C5.00083 9.56162 4.75337 9.55068 4.59478 9.40439C4.43618 9.25811 4.44712 8.98877 4.59478 8.84111L4.60161 8.83428C4.76977 8.65928 4.94614 8.48975 5.11841 8.31748L6.17935 7.25654L7.40571 6.03018L8.4188 5.01709L8.84126 4.59463C8.99849 4.4374 9.24595 4.44834 9.40454 4.59463C9.56313 4.74092 9.5522 5.01025 9.40454 5.15791L9.39771 5.16475C9.22954 5.33975 9.05317 5.50928 8.88091 5.68154L7.81997 6.74248L6.5936 7.96885ZM9.83247 8.84932C9.79556 9.0831 9.66841 9.30459 9.50708 9.47412L9.49341 9.48779L9.47563 9.50557C9.06684 9.88974 8.41196 9.97451 7.93755 9.65459C7.49458 9.35518 7.27583 8.81924 7.40708 8.2956C7.46587 8.06182 7.60395 7.82939 7.78989 7.6749C8.00591 7.49443 8.24517 7.39463 8.52407 7.36728C9.01079 7.31807 9.52212 7.61338 9.72856 8.05498C9.84614 8.31064 9.87622 8.57041 9.83247 8.84932Z" fill="white"/>
<path d="M5.83604 5.45049C5.83604 5.45186 5.83604 5.45186 5.83604 5.45049C5.82783 5.49014 5.81689 5.52842 5.80459 5.5667C5.78955 5.59678 5.77314 5.62686 5.754 5.65557C5.75264 5.6583 5.75127 5.65967 5.7499 5.6624C5.73623 5.67744 5.72256 5.69248 5.70752 5.70752C5.69248 5.72256 5.67744 5.73623 5.6624 5.7499C5.66104 5.75127 5.6583 5.75264 5.65557 5.754C5.62686 5.77314 5.59678 5.78955 5.5667 5.80459C5.52842 5.81826 5.49014 5.82783 5.45186 5.83604C5.41221 5.83877 5.37119 5.83877 5.33154 5.83604C5.29189 5.82783 5.25361 5.81689 5.2167 5.80459C5.18662 5.78955 5.15654 5.77314 5.12783 5.754C5.1251 5.75264 5.12236 5.75127 5.121 5.7499C5.10596 5.73623 5.09092 5.72256 5.07588 5.70752C5.06084 5.69248 5.04717 5.67744 5.0335 5.6624C5.03213 5.66104 5.03076 5.6583 5.02939 5.65557C5.01025 5.62686 4.99385 5.59678 4.97881 5.5667C4.96514 5.52842 4.95557 5.49014 4.94736 5.45186C4.94463 5.41221 4.94463 5.37119 4.94736 5.33154C4.95557 5.29189 4.9665 5.25361 4.97881 5.2167C4.99385 5.18662 5.01025 5.15654 5.02939 5.12783C5.03076 5.1251 5.03213 5.12236 5.0335 5.121C5.04717 5.10596 5.06084 5.09092 5.07588 5.07588C5.09092 5.06084 5.10596 5.04717 5.121 5.0335C5.12373 5.03213 5.1251 5.03076 5.12783 5.02939C5.15654 5.01025 5.18662 4.99385 5.2167 4.97881C5.25498 4.96514 5.29326 4.95557 5.33154 4.94736C5.37119 4.94463 5.41221 4.94463 5.45186 4.94736C5.4915 4.95557 5.52979 4.9665 5.5667 4.97881C5.59678 4.99385 5.62686 5.01025 5.65557 5.02939C5.6583 5.03076 5.66104 5.03213 5.6624 5.0335L5.70752 5.07451C5.72256 5.08955 5.73623 5.10459 5.7499 5.11963C5.75127 5.12236 5.75264 5.12373 5.754 5.12646C5.77314 5.15518 5.78955 5.18525 5.80459 5.21533C5.81826 5.25361 5.82783 5.29189 5.83604 5.33018C5.83877 5.37119 5.83877 5.41084 5.83604 5.45049ZM9.05713 8.67021C9.04893 8.70986 9.03799 8.74814 9.02568 8.78643C9.01064 8.8165 8.99424 8.84658 8.9751 8.87529C8.97373 8.87803 8.97236 8.87939 8.971 8.88213C8.95732 8.89717 8.94365 8.91357 8.92861 8.92725C8.91357 8.94229 8.89854 8.95596 8.8835 8.96963C8.88213 8.971 8.87939 8.97236 8.87666 8.97373C8.84795 8.99287 8.81924 9.00928 8.78916 9.02432C8.75088 9.03799 8.7126 9.04756 8.67295 9.05576C8.6333 9.0585 8.59229 9.0585 8.55264 9.05576C8.51299 9.04756 8.47471 9.03662 8.43643 9.02432C8.40635 9.00928 8.37627 8.99287 8.34893 8.97373C8.34619 8.97236 8.34482 8.971 8.34209 8.96963C8.32705 8.95596 8.31065 8.94229 8.29697 8.92725C8.28193 8.91221 8.26826 8.89717 8.25459 8.88213C8.25322 8.87939 8.25186 8.87803 8.25049 8.87529C8.23135 8.84658 8.21494 8.81787 8.1999 8.78643C8.18623 8.74814 8.17666 8.70986 8.16846 8.67021C8.16572 8.63057 8.16572 8.58955 8.16846 8.5499C8.17666 8.51025 8.1876 8.47197 8.1999 8.43369C8.21494 8.40361 8.23135 8.37354 8.25049 8.34482C8.25186 8.34209 8.25322 8.33936 8.25459 8.33799C8.26826 8.32295 8.28193 8.30791 8.29697 8.29287C8.31201 8.27783 8.32705 8.26553 8.34209 8.25186C8.34482 8.25049 8.34619 8.24912 8.34893 8.24775C8.37764 8.22861 8.40635 8.21221 8.43643 8.19717C8.47471 8.1835 8.51299 8.17393 8.55264 8.16572C8.59229 8.16299 8.6333 8.16299 8.67295 8.16572C8.7126 8.17393 8.75088 8.18486 8.78916 8.19717C8.81924 8.21221 8.84932 8.22861 8.87666 8.24775C8.87939 8.24912 8.88213 8.25049 8.8835 8.25186L8.92861 8.29287C8.94365 8.30791 8.95732 8.32295 8.971 8.33799C8.97236 8.34072 8.97373 8.34209 8.9751 8.34482C8.99424 8.37354 9.01064 8.40225 9.02568 8.43369C9.03936 8.47197 9.04893 8.51025 9.05713 8.5499C9.05986 8.58955 9.05986 8.6292 9.05713 8.67021Z" fill="white"/>
</g>
<defs>
<clipPath id="clip0_780_8722">
<rect width="14" height="14" fill="white"/>
</clipPath>
</defs>
</svg>
