<svg width="40" height="40" viewBox="0 0 40 40" fill="none" xmlns="http://www.w3.org/2000/svg">
<rect width="40" height="40" rx="20" fill="#B3B3B3" fill-opacity="0.1"/>
<path fill-rule="evenodd" clip-rule="evenodd" d="M28.5413 25.5113C28.5413 24.4555 27.9013 23.4496 26.7405 22.658C25.2188 21.6205 22.768 20.928 19.9997 20.928C17.2313 20.928 14.7805 21.6205 13.2588 22.658C12.098 23.4496 11.458 24.4555 11.458 25.5113V26.7205C11.458 27.0962 11.6073 27.4565 11.8729 27.7222C12.1386 27.9879 12.499 28.1371 12.8747 28.1371L27.1247 28.1363C27.3108 28.1365 27.4951 28.1 27.6671 28.0289C27.839 27.9578 27.9953 27.8535 28.1269 27.7219C28.2585 27.5903 28.3628 27.434 28.434 27.262C28.5051 27.0901 28.5416 26.9057 28.5413 26.7196V25.5113ZM27.2913 25.5121V26.7205C27.2913 26.7647 27.2738 26.8071 27.2425 26.8383C27.2113 26.8696 27.1689 26.8871 27.1247 26.8871H12.8747C12.8305 26.8871 12.7881 26.8696 12.7568 26.8383C12.7256 26.8071 12.708 26.7647 12.708 26.7205V25.5121C12.708 24.8196 13.2022 24.2096 13.9638 23.6913C15.3238 22.763 17.5247 22.178 19.9997 22.178C22.4747 22.178 24.6755 22.763 26.0355 23.6913C26.7972 24.2096 27.2913 24.8196 27.2913 25.5121ZM19.9997 11.043C18.7842 11.0434 17.6187 11.5264 16.7593 12.3859C15.8998 13.2453 15.4168 14.4109 15.4163 15.6263C15.4163 18.1563 17.4697 20.2096 19.9997 20.2096C22.5297 20.2096 24.583 18.1563 24.583 15.6263C24.583 13.0963 22.5297 11.043 19.9997 11.043ZM19.9997 12.293C21.8397 12.293 23.333 13.7863 23.333 15.6263C23.333 17.4663 21.8397 18.9596 19.9997 18.9596C18.1597 18.9596 16.6663 17.4663 16.6663 15.6263C16.6663 13.7863 18.1597 12.293 19.9997 12.293Z" fill="white"/>
</svg>
