<svg width="20" height="20" viewBox="0 0 20 20" fill="none" xmlns="http://www.w3.org/2000/svg">
<path d="M20 10C20 15.5228 15.5228 20 10 20C4.47715 20 0 15.5228 0 10C0 4.47715 4.47715 0 10 0C15.5228 0 20 4.47715 20 10ZM2.24437 10C2.24437 14.2833 5.71668 17.7556 10 17.7556C14.2833 17.7556 17.7556 14.2833 17.7556 10C17.7556 5.71668 14.2833 2.24437 10 2.24437C5.71668 2.24437 2.24437 5.71668 2.24437 10Z" fill="url(#paint0_linear_842_25385)"/>
<circle cx="10" cy="10" r="5" fill="#EC4A8A"/>
<defs>
<linearGradient id="paint0_linear_842_25385" x1="10" y1="0" x2="10" y2="20" gradientUnits="userSpaceOnUse">
<stop stop-color="#EC4A8A"/>
<stop offset="1" stop-color="#7933AF"/>
</linearGradient>
</defs>
</svg>
