<svg width="24" height="24" viewBox="0 0 24 24" fill="none" xmlns="http://www.w3.org/2000/svg">
<g clip-path="url(#clip0_787_9125)">
<path d="M23.5205 12.0005C23.5205 18.3525 18.3525 23.5205 12.0005 23.5205C5.64839 23.5205 0.480469 18.3525 0.480469 12.0005C0.480469 11.6025 0.802549 11.2805 1.20047 11.2805C1.59839 11.2805 1.92047 11.6025 1.92047 12.0005C1.92047 17.5586 6.44231 22.0805 12.0005 22.0805C17.5586 22.0805 22.0805 17.5586 22.0805 12.0005C22.0805 6.44231 17.5586 1.92047 12.0005 1.92047C9.32135 1.92047 6.83423 2.96183 4.96319 4.80047H7.68047C8.07839 4.80047 8.40047 5.12255 8.40047 5.52047C8.40047 5.91839 8.07839 6.24047 7.68047 6.24047H3.36047C2.96255 6.24047 2.64047 5.91839 2.64047 5.52047V1.20047C2.64047 0.802549 2.96255 0.480469 3.36047 0.480469C3.75839 0.480469 4.08047 0.802549 4.08047 1.20047V3.65663C6.20471 1.62911 8.99591 0.480469 12.0005 0.480469C18.3525 0.480469 23.5205 5.64839 23.5205 12.0005ZM18.4805 9.12047V15.6005C18.4805 15.9007 18.2942 16.1693 18.0137 16.2749L12.2537 18.4349C12.1721 18.4651 12.0861 18.4805 12.0005 18.4805C11.9148 18.4805 11.8289 18.4651 11.7473 18.4349L5.98727 16.2749C5.70671 16.1693 5.52047 15.9007 5.52047 15.6005V9.12047C5.52047 8.82023 5.70671 8.55167 5.98727 8.44607L11.7473 6.28607C11.9105 6.22559 12.0905 6.22559 12.2534 6.28607L18.0134 8.44607C18.2942 8.55167 18.4805 8.82023 18.4805 9.12047ZM8.29079 9.12047L12.0005 10.5113L15.7101 9.12047L12.0005 7.72967L8.29079 9.12047ZM6.96047 15.1013L11.2805 16.7213V11.7797L6.96047 10.1597V15.1013ZM17.0405 15.1013V10.1597L12.7205 11.7797V16.7213L17.0405 15.1013Z" fill="#AEA7C3"/>
</g>
<defs>
<clipPath id="clip0_787_9125">
<rect width="24" height="24" fill="white"/>
</clipPath>
</defs>
</svg>
