<svg width="40" height="40" viewBox="0 0 40 40" fill="none" xmlns="http://www.w3.org/2000/svg">
<rect width="40" height="40" rx="20" fill="#B3B3B3" fill-opacity="0.1"/>
<path d="M17.7969 11.5L18.0469 11.5068C18.2138 11.5153 18.3819 11.5309 18.5518 11.5518L18.8076 11.5869C19.9651 11.7618 21.0702 12.3044 21.9551 13.0879L22.1299 13.248C22.9756 14.0565 23.5981 15.1225 23.876 16.2588L23.9268 16.4863C24.056 17.1332 24.0964 17.7943 24.0215 18.4385C23.9491 19.0472 23.8032 19.6216 23.5752 20.1826L23.4727 20.4219C23.2542 20.9044 22.9676 21.3589 22.626 21.7705L22.335 22.1211L22.6572 22.4434L23.8252 23.6123L24.1787 23.9658L24.5322 23.6123L24.9902 23.1533L27.6768 25.8398V25.8389C27.8914 26.056 28.0365 26.1764 28.1816 26.3506L28.1846 26.3535C28.6229 26.8723 28.6018 27.6352 28.1357 28.1279L28.1348 28.1289L28.127 28.1357C27.658 28.5959 26.9007 28.6188 26.3926 28.2109L26.2949 28.124L23.1592 24.9883L23.293 24.8564L23.9736 24.1758L23.6182 23.8223C23.2278 23.434 22.8371 23.0432 22.4482 22.6543L22.127 22.333L21.7764 22.6221C21.536 22.8204 21.2811 23.0008 21.0166 23.1611C19.9231 23.8228 18.6082 24.1407 17.3359 24.041C16.0075 23.9368 14.7719 23.4329 13.7441 22.5859C12.7861 21.7952 12.0768 20.6861 11.7363 19.4863H11.7354C11.3834 18.2481 11.4252 16.8727 11.8672 15.668C12.3181 14.4394 13.1186 13.3947 14.1846 12.6338H14.1855C15.1515 11.9439 16.3335 11.5565 17.5273 11.5059L17.7656 11.5H17.7969Z" stroke="white"/>
</svg>
