<svg width="20" height="20" viewBox="0 0 20 20" fill="none" xmlns="http://www.w3.org/2000/svg">
<path d="M14.0352 13.187C18.1128 8.51908 14.6557 0.945658 8.40077 1.00029C4.32041 1.00024 1.00026 4.3201 1.00026 8.40087C0.94906 14.6584 8.51673 18.1111 13.1871 14.0351C13.187 14.0352 17.9712 18.8194 17.9712 18.8194C18.5243 19.3691 19.3742 18.5306 18.8194 17.9712C18.8194 17.9712 14.0352 13.187 14.0352 13.187ZM2.19992 8.40087C2.19992 4.98172 4.98175 2.1999 8.4009 2.1999C16.6272 2.54063 16.6251 14.2622 8.40085 14.6016C4.98174 14.6016 2.19992 11.82 2.19992 8.40087Z" fill="#605B73"/>
</svg>
