<svg width="20" height="20" viewBox="0 0 20 20" fill="none" xmlns="http://www.w3.org/2000/svg">
<path d="M16.7187 1.97266H3.28125C1.85125 1.97266 0.6875 3.13641 0.6875 4.56641V13.2977C0.6875 14.7277 1.85125 15.8914 3.28125 15.8914H10.7C11.0106 15.8914 11.2625 15.6395 11.2625 15.3289C11.2625 15.0183 11.0106 14.7664 10.7 14.7664H3.28125C2.47125 14.7664 1.8125 14.1077 1.8125 13.2977V8.77891H18.1875V9.74141C18.1875 10.052 18.4394 10.3039 18.75 10.3039C19.0606 10.3039 19.3125 10.052 19.3125 9.74141V4.56703C19.3125 3.13703 18.1487 1.97266 16.7187 1.97266ZM3.28125 3.09828H16.7187C17.5287 3.09828 18.1875 3.75703 18.1875 4.56703V5.10141H1.8125V4.56703C1.8125 3.75703 2.47125 3.09828 3.28125 3.09828ZM1.8125 7.65328V6.22703H18.1875V7.65328H1.8125Z" fill="#AEA7C3"/>
<path d="M16.2497 13.05L15.2428 13.8619L15.0241 13.5831C14.8328 13.34 14.4785 13.2956 14.2341 13.4881C13.9897 13.68 13.9466 14.0331 14.1385 14.2781L14.7091 15.0056C14.8022 15.1237 14.9385 15.2006 15.0878 15.2175C15.1091 15.22 15.1303 15.2212 15.1516 15.2212C15.2797 15.2212 15.4041 15.1775 15.5047 15.0969L16.9553 13.9275C17.1972 13.7319 17.2353 13.3781 17.0403 13.1362C16.846 12.8931 16.4916 12.8556 16.2497 13.05Z" fill="#AEA7C3"/>
<path d="M18.6442 11.5103L16.1367 10.2497C15.7948 10.0784 15.3886 10.0778 15.0473 10.2503L12.5411 11.5097C12.1242 11.7184 11.8623 12.1553 11.8723 12.6222C11.8986 13.8184 12.2486 16.7259 14.9205 17.8866C15.1336 17.9791 15.363 18.0259 15.5923 18.0259C15.8217 18.0259 16.0505 17.9797 16.2636 17.8866C18.9355 16.7266 19.2855 13.8184 19.3117 12.6228C19.323 12.1559 19.0605 11.7191 18.6442 11.5103ZM15.8155 16.8553C15.6736 16.9166 15.5111 16.9166 15.3686 16.8553C13.2923 15.9541 13.018 13.5778 12.9967 12.5978C12.9961 12.5622 13.0142 12.5309 13.0455 12.5147L15.5511 11.2553C15.5642 11.2491 15.578 11.2453 15.5917 11.2453C15.6055 11.2453 15.6186 11.2484 15.6311 11.2547L18.1386 12.5153C18.1692 12.5303 18.1873 12.5616 18.1867 12.5978C18.1655 13.5778 17.8911 15.9534 15.8155 16.8553Z" fill="#AEA7C3"/>
</svg>
