<svg width="11" height="11" viewBox="0 0 11 11" fill="none" xmlns="http://www.w3.org/2000/svg">
<path d="M10.2294 4.63306L8.12001 6.45322L8.76267 9.17525C8.79812 9.32301 8.78899 9.47797 8.73643 9.62055C8.68386 9.76313 8.59022 9.88693 8.46732 9.97632C8.34443 10.0657 8.19781 10.1167 8.04597 10.1228C7.89413 10.1289 7.74389 10.0898 7.61423 10.0106L5.24704 8.55368L2.87845 10.0106C2.7488 10.0894 2.59875 10.128 2.44717 10.1217C2.29559 10.1154 2.14927 10.0644 2.02664 9.97505C1.904 9.88574 1.81053 9.76215 1.758 9.61982C1.70546 9.4775 1.69621 9.32282 1.73142 9.17525L2.37642 6.45322L0.267041 4.63306C0.152337 4.53392 0.0693809 4.40319 0.0285329 4.25719C-0.0123151 4.11119 -0.00924472 3.95639 0.0373607 3.81212C0.083966 3.66786 0.172041 3.54052 0.290586 3.44601C0.409131 3.3515 0.552892 3.29401 0.703916 3.28072L3.46954 3.05759L4.53642 0.475716C4.59416 0.335005 4.69245 0.214645 4.81878 0.129937C4.94511 0.0452292 5.09377 0 5.24587 0C5.39797 0 5.54663 0.0452292 5.67296 0.129937C5.79929 0.214645 5.89757 0.335005 5.95532 0.475716L7.02173 3.05759L9.78735 3.28072C9.93868 3.29351 10.0829 3.35068 10.2018 3.44506C10.3208 3.53944 10.4093 3.66683 10.4562 3.81127C10.5031 3.95571 10.5063 4.11078 10.4655 4.25705C10.4246 4.40332 10.3415 4.53428 10.2266 4.63353L10.2294 4.63306Z" fill="black"/>
</svg>
