<svg width="20" height="20" viewBox="0 0 20 20" fill="none" xmlns="http://www.w3.org/2000/svg">
<path d="M15.5409 18.125H4.46087C4.02139 18.125 3.58685 18.0323 3.18563 17.8529C2.78441 17.6736 2.42553 17.4116 2.13242 17.0841C1.83932 16.7567 1.61859 16.3711 1.48463 15.9525C1.35068 15.5339 1.30652 15.0918 1.35504 14.655L2.46587 4.655C2.54989 3.89029 2.9134 3.18356 3.48663 2.67047C4.05985 2.15738 4.80239 1.8741 5.57171 1.875H14.4292C15.1986 1.87408 15.9413 2.15733 16.5146 2.6704C17.088 3.18347 17.4517 3.89022 17.5359 4.655L18.6467 14.655C18.6952 15.0918 18.6511 15.5339 18.5171 15.9525C18.3832 16.3711 18.1624 16.7567 17.8693 17.0841C17.5762 17.4116 17.2173 17.6736 16.8161 17.8529C16.4149 18.0323 15.9804 18.125 15.5409 18.125ZM5.57171 3.125C5.11035 3.12447 4.66504 3.29427 4.32117 3.60184C3.9773 3.90942 3.75909 4.33311 3.70837 4.79167L2.59754 14.7917C2.56823 15.0538 2.59457 15.3192 2.67484 15.5705C2.75511 15.8218 2.8875 16.0534 3.06337 16.25C3.23923 16.4466 3.45461 16.6039 3.69543 16.7116C3.93624 16.8193 4.19707 16.875 4.46087 16.875H15.5442C15.8081 16.8766 16.0692 16.8218 16.3101 16.7141C16.551 16.6065 16.7661 16.4485 16.9409 16.2508C17.1168 16.0542 17.2494 15.8227 17.3299 15.5715C17.4105 15.3202 17.4372 15.0548 17.4084 14.7925L16.2975 4.7925C16.2464 4.3338 16.0279 3.91009 15.6837 3.60254C15.3396 3.295 14.8941 3.12526 14.4325 3.12584L5.57171 3.125Z" fill="#605B73"/>
<path d="M10 9.79102C9.17147 9.79013 8.37713 9.46061 7.79127 8.87475C7.20541 8.28889 6.87588 7.49455 6.875 6.66602C6.875 6.50026 6.94085 6.34128 7.05806 6.22407C7.17527 6.10686 7.33424 6.04102 7.5 6.04102C7.66576 6.04102 7.82473 6.10686 7.94194 6.22407C8.05915 6.34128 8.125 6.50026 8.125 6.66602C8.125 7.1633 8.32254 7.64021 8.67417 7.99184C9.02581 8.34347 9.50272 8.54102 10 8.54102C10.4973 8.54102 10.9742 8.34347 11.3258 7.99184C11.6775 7.64021 11.875 7.1633 11.875 6.66602C11.875 6.50026 11.9408 6.34128 12.0581 6.22407C12.1753 6.10686 12.3342 6.04102 12.5 6.04102C12.6658 6.04102 12.8247 6.10686 12.9419 6.22407C13.0592 6.34128 13.125 6.50026 13.125 6.66602C13.1239 7.49448 12.7943 8.28869 12.2085 8.87451C11.6227 9.46032 10.8285 9.78991 10 9.79102Z" fill="#605B73"/>
</svg>
