<svg width="20" height="20" viewBox="0 0 20 20" fill="none" xmlns="http://www.w3.org/2000/svg">
<path d="M6.66602 8.95768H3.33268C2.72508 8.95706 2.14255 8.71542 1.71291 8.28579C1.28327 7.85615 1.04163 7.27361 1.04102 6.66602V3.33268C1.04163 2.72508 1.28327 2.14255 1.71291 1.71291C2.14255 1.28327 2.72508 1.04163 3.33268 1.04102H6.66602C7.27361 1.04163 7.85615 1.28327 8.28579 1.71291C8.71542 2.14255 8.95706 2.72508 8.95768 3.33268V6.66602C8.95706 7.27361 8.71542 7.85615 8.28579 8.28579C7.85615 8.71542 7.27361 8.95706 6.66602 8.95768ZM3.33268 2.29102C3.05649 2.29127 2.79169 2.4011 2.5964 2.5964C2.4011 2.79169 2.29127 3.05649 2.29102 3.33268V6.66602C2.29127 6.9422 2.4011 7.20701 2.5964 7.4023C2.79169 7.5976 3.05649 7.70743 3.33268 7.70768H6.66602C6.9422 7.70743 7.20701 7.5976 7.4023 7.4023C7.5976 7.20701 7.70743 6.9422 7.70768 6.66602V3.33268C7.70743 3.05649 7.5976 2.79169 7.4023 2.5964C7.20701 2.4011 6.9422 2.29127 6.66602 2.29102H3.33268Z" fill="#605B73"/>
<path d="M16.666 8.95768H13.3327C12.7251 8.95706 12.1425 8.71542 11.7129 8.28579C11.2833 7.85615 11.0416 7.27361 11.041 6.66602V3.33268C11.0416 2.72508 11.2833 2.14255 11.7129 1.71291C12.1425 1.28327 12.7251 1.04163 13.3327 1.04102H16.666C17.2736 1.04163 17.8561 1.28327 18.2858 1.71291C18.7154 2.14255 18.9571 2.72508 18.9577 3.33268V6.66602C18.9571 7.27361 18.7154 7.85615 18.2858 8.28579C17.8561 8.71542 17.2736 8.95706 16.666 8.95768ZM13.3327 2.29102C13.0565 2.29127 12.7917 2.4011 12.5964 2.5964C12.4011 2.79169 12.2913 3.05649 12.291 3.33268V6.66602C12.2913 6.9422 12.4011 7.20701 12.5964 7.4023C12.7917 7.5976 13.0565 7.70743 13.3327 7.70768H16.666C16.9422 7.70743 17.207 7.5976 17.4023 7.4023C17.5976 7.20701 17.7074 6.9422 17.7077 6.66602V3.33268C17.7074 3.05649 17.5976 2.79169 17.4023 2.5964C17.207 2.4011 16.9422 2.29127 16.666 2.29102H13.3327Z" fill="#605B73"/>
<path d="M6.66602 18.9577H3.33268C2.72508 18.9571 2.14255 18.7154 1.71291 18.2858C1.28327 17.8561 1.04163 17.2736 1.04102 16.666V13.3327C1.04163 12.7251 1.28327 12.1425 1.71291 11.7129C2.14255 11.2833 2.72508 11.0416 3.33268 11.041H6.66602C7.27361 11.0416 7.85615 11.2833 8.28579 11.7129C8.71542 12.1425 8.95706 12.7251 8.95768 13.3327V16.666C8.95706 17.2736 8.71542 17.8561 8.28579 18.2858C7.85615 18.7154 7.27361 18.9571 6.66602 18.9577ZM3.33268 12.291C3.05649 12.2913 2.79169 12.4011 2.5964 12.5964C2.4011 12.7917 2.29127 13.0565 2.29102 13.3327V16.666C2.29127 16.9422 2.4011 17.207 2.5964 17.4023C2.79169 17.5976 3.05649 17.7074 3.33268 17.7077H6.66602C6.9422 17.7074 7.20701 17.5976 7.4023 17.4023C7.5976 17.207 7.70743 16.9422 7.70768 16.666V13.3327C7.70743 13.0565 7.5976 12.7917 7.4023 12.5964C7.20701 12.4011 6.9422 12.2913 6.66602 12.291H3.33268Z" fill="#605B73"/>
<path d="M14.9987 19.4446C14.8072 19.445 14.6176 19.4075 14.4406 19.3343C14.2637 19.2611 14.1029 19.1537 13.9677 19.0181L10.9794 16.0298C10.7062 15.7562 10.5527 15.3854 10.5527 14.9987C10.5527 14.6121 10.7062 14.2413 10.9794 13.9677L13.9677 10.9794C14.2413 10.7062 14.6121 10.5527 14.9987 10.5527C15.3854 10.5527 15.7562 10.7062 16.0298 10.9794L19.0181 13.9677C19.2913 14.2413 19.4447 14.6121 19.4447 14.9987C19.4447 15.3854 19.2913 15.7562 19.0181 16.0298L16.0298 19.0181C15.8946 19.1537 15.7338 19.2611 15.5569 19.3343C15.3799 19.4075 15.1902 19.445 14.9987 19.4446ZM14.9987 11.8022C14.9714 11.8021 14.9443 11.8074 14.919 11.8179C14.8937 11.8284 14.8707 11.8438 14.8514 11.8632L11.8632 14.8514C11.8438 14.8708 11.8285 14.8937 11.818 14.919C11.8075 14.9443 11.8021 14.9714 11.8021 14.9987C11.8021 15.0261 11.8075 15.0532 11.818 15.0785C11.8285 15.1037 11.8438 15.1267 11.8632 15.146L14.8514 18.1343C14.8708 18.1537 14.8937 18.169 14.919 18.1795C14.9443 18.19 14.9714 18.1953 14.9987 18.1953C15.0261 18.1953 15.0532 18.19 15.0785 18.1795C15.1037 18.169 15.1267 18.1537 15.146 18.1343L18.1343 15.146C18.1537 15.1267 18.169 15.1037 18.1795 15.0785C18.19 15.0532 18.1953 15.0261 18.1953 14.9987C18.1953 14.9714 18.19 14.9443 18.1795 14.919C18.169 14.8937 18.1537 14.8708 18.1343 14.8514L15.146 11.8632C15.1267 11.8437 15.1038 11.8284 15.0785 11.8179C15.0532 11.8074 15.0261 11.8021 14.9987 11.8022Z" fill="#605B73"/>
</svg>
