<svg width="20" height="20" viewBox="0 0 20 20" fill="none" xmlns="http://www.w3.org/2000/svg">
<g clip-path="url(#clip0_621_8998)">
<path d="M17.5001 20.0009C18.1689 19.9941 18.8077 19.7223 19.2764 19.2451C19.745 18.7679 20.0053 18.1243 20.0001 17.4555V8.85014C20.0014 8.47637 19.9207 8.10685 19.7637 7.76764C19.6067 7.42843 19.3772 7.12777 19.0915 6.88685L11.5917 0.583308C11.1464 0.207871 10.5827 0.00195313 10.0003 0.00195312C9.41781 0.00195313 8.8541 0.207871 8.40879 0.583308L0.908786 6.88702C0.623032 7.12788 0.393571 7.42868 0.236567 7.76783C0.0795639 8.10697 -0.00116184 8.47642 7.73662e-05 8.85014V17.4555C-0.00515409 18.1243 0.255113 18.7679 0.723786 19.2451C1.19246 19.7223 1.83127 19.9941 2.50008 20.0009H17.5001ZM1.66674 17.4555V8.85014C1.6657 8.71959 1.69328 8.5904 1.74755 8.47166C1.80182 8.35293 1.88147 8.24753 1.98087 8.16289L9.48108 1.85918C9.62545 1.73485 9.80965 1.66647 10.0002 1.66647C10.1907 1.66647 10.3749 1.73485 10.5193 1.85918L18.0193 8.16268C18.1187 8.24735 18.1984 8.35279 18.2526 8.47156C18.3069 8.59033 18.3345 8.71956 18.3334 8.85014V17.4555C18.339 17.6824 18.2545 17.9023 18.0983 18.067C17.9421 18.2317 17.727 18.3278 17.5001 18.3342H2.50008C2.27318 18.3278 2.05806 18.2317 1.90186 18.067C1.74567 17.9023 1.66112 17.6824 1.66674 17.4555Z" fill="#605B73"/>
<path d="M13.334 15.8327C13.555 15.8327 13.767 15.7449 13.9232 15.5886C14.0795 15.4323 14.1673 15.2204 14.1673 14.9993C14.1673 14.7783 14.0795 14.5664 13.9232 14.4101C13.767 14.2538 13.555 14.166 13.334 14.166H6.66732C6.4463 14.166 6.23434 14.2538 6.07806 14.4101C5.92178 14.5664 5.83398 14.7783 5.83398 14.9993C5.83398 15.2204 5.92178 15.4323 6.07806 15.5886C6.23434 15.7449 6.4463 15.8327 6.66732 15.8327H13.334Z" fill="#605B73"/>
</g>
<defs>
<clipPath id="clip0_621_8998">
<rect width="20" height="20" fill="white"/>
</clipPath>
</defs>
</svg>
