<svg width="56" height="56" viewBox="0 0 56 56" fill="none" xmlns="http://www.w3.org/2000/svg">
<g filter="url(#filter0_d_920_53864)">
<circle cx="28" cy="24" r="24" fill="url(#paint0_linear_920_53864)"/>
</g>
<path d="M31.671 23.4347L26.071 20.1013C25.8552 19.9729 25.5832 19.9661 25.3607 20.0836C25.1381 20.201 25 20.4243 25 20.6667V27.3333C25 27.5757 25.1381 27.7989 25.3607 27.9164C25.4664 27.9723 25.5833 28 25.7 28C25.8289 28 25.9577 27.9661 26.071 27.8987L31.671 24.5653C31.8757 24.4435 32 24.2299 32 24C32 23.7701 31.8757 23.5565 31.671 23.4347ZM26.4 26.1305V21.8695L29.9793 24L26.4 26.1305Z" fill="white"/>
<path d="M35.0703 15H20.9297C19.3143 15 18 16.5528 18 18.4615V29.5385C18 31.4472 19.3143 33 20.9297 33H35.0703C36.6857 33 38 31.4472 38 29.5385V18.4615C38 16.5528 36.6857 15 35.0703 15ZM36.8281 29.5385C36.8281 30.6837 36.0396 31.6154 35.0703 31.6154H20.9297C19.9604 31.6154 19.1719 30.6837 19.1719 29.5385V18.4615C19.1719 17.3163 19.9604 16.3846 20.9297 16.3846H35.0703C36.0396 16.3846 36.8281 17.3163 36.8281 18.4615V29.5385Z" fill="white"/>
<defs>
<filter id="filter0_d_920_53864" x="0" y="0" width="56" height="56" filterUnits="userSpaceOnUse" color-interpolation-filters="sRGB">
<feFlood flood-opacity="0" result="BackgroundImageFix"/>
<feColorMatrix in="SourceAlpha" type="matrix" values="0 0 0 0 0 0 0 0 0 0 0 0 0 0 0 0 0 0 127 0" result="hardAlpha"/>
<feOffset dy="4"/>
<feGaussianBlur stdDeviation="2"/>
<feComposite in2="hardAlpha" operator="out"/>
<feColorMatrix type="matrix" values="0 0 0 0 0.92549 0 0 0 0 0.290196 0 0 0 0 0.541176 0 0 0 0.1 0"/>
<feBlend mode="normal" in2="BackgroundImageFix" result="effect1_dropShadow_920_53864"/>
<feBlend mode="normal" in="SourceGraphic" in2="effect1_dropShadow_920_53864" result="shape"/>
</filter>
<linearGradient id="paint0_linear_920_53864" x1="28" y1="0" x2="28" y2="48" gradientUnits="userSpaceOnUse">
<stop stop-color="#EC4A8A"/>
<stop offset="1" stop-color="#7933AF"/>
</linearGradient>
</defs>
</svg>
