<svg width="20" height="20" viewBox="0 0 20 20" fill="none" xmlns="http://www.w3.org/2000/svg">
<path fill-rule="evenodd" clip-rule="evenodd" d="M5.40202 2.3462C2.34286 3.33119 0.977023 6.67117 2.00369 9.85781C2.52369 11.3586 3.37036 12.7078 4.48286 13.8136C6.0032 15.2911 7.68133 16.597 9.48702 17.7077L9.69119 17.8302C9.88786 17.9469 10.1329 17.9452 10.327 17.8252L10.5179 17.7061C12.3204 16.597 13.9957 15.2934 15.5137 13.8186C16.6301 12.7086 17.4786 11.3585 17.9945 9.87114C19.0237 6.67367 17.6529 3.33203 14.5929 2.3462L14.3712 2.28037C12.9737 1.89653 11.4811 2.08233 10.2204 2.79703L9.99619 2.9287L9.77702 2.79703C9.11866 2.42326 8.38985 2.19027 7.63676 2.11281C6.88366 2.03535 6.12269 2.11428 5.40202 2.3462ZM9.47869 4.04619L9.64202 4.16285C9.85869 4.31785 10.1504 4.31452 10.3629 4.15535C10.907 3.74675 11.5411 3.4745 12.2122 3.36141C12.8832 3.24831 13.5715 3.29768 14.2195 3.50536C16.5912 4.26952 17.6695 6.90117 16.8379 9.48531C16.384 10.7908 15.6391 11.976 14.6595 12.9511L14.2195 13.3686C13.0328 14.4715 11.7514 15.4681 10.3904 16.3469L10.0004 16.5919L10.1195 16.6669C8.39426 15.6051 6.79077 14.357 5.33786 12.9453C4.3575 11.9679 3.61256 10.7801 3.15952 9.47198C2.33119 6.89867 3.40536 4.26869 5.77619 3.50536C6.39363 3.3069 7.0483 3.25239 7.69006 3.34598C8.33183 3.43958 8.94365 3.67965 9.47869 4.04619Z" fill="#605B73"/>
</svg>
